<svg xmlns="http://www.w3.org/2000/svg" xmlns:xlink="http://www.w3.org/1999/xlink" width="500" zoomAndPan="magnify" viewBox="0 0 375 157.92" height="200" preserveAspectRatio="xMidYMid meet" version="1.0"><defs><clipPath id="df9bc691d4"><path d="M 105.636719 1.855469 L 261.507812 1.855469 L 261.507812 141.179688 L 105.636719 141.179688 Z M 105.636719 1.855469 " clip-rule="nonzero"/></clipPath><clipPath id="6d395360c7"><path d="M 0.09375 148 L 374.902344 148 L 374.902344 149.925781 L 0.09375 149.925781 Z M 0.09375 148 " clip-rule="nonzero"/></clipPath></defs><g clip-path="url(#df9bc691d4)"><path fill="#ffbd59" d="M 121.332031 141.179688 C 115.738281 141.179688 110.53125 138.171875 107.734375 133.332031 C 104.9375 128.488281 104.9375 122.472656 107.734375 117.628906 L 170.042969 9.703125 C 172.839844 4.863281 178.050781 1.855469 183.640625 1.855469 C 189.230469 1.855469 194.441406 4.863281 197.238281 9.703125 L 259.546875 117.628906 C 262.34375 122.472656 262.34375 128.488281 259.546875 133.332031 C 256.753906 138.171875 251.542969 141.179688 245.953125 141.179688 L 121.332031 141.179688 " fill-opacity="1" fill-rule="nonzero"/></g><path fill="#ffbd59" d="M 178.378906 14.515625 L 116.066406 122.441406 C 113.726562 126.492188 116.652344 131.558594 121.332031 131.558594 L 245.953125 131.558594 C 250.632812 131.558594 253.554688 126.492188 251.214844 122.441406 L 188.902344 14.515625 C 186.566406 10.464844 180.71875 10.464844 178.378906 14.515625 " fill-opacity="1" fill-rule="nonzero"/><path fill="#ffbd59" d="M 178.378906 14.515625 L 116.066406 122.441406 C 113.726562 126.492188 116.652344 131.558594 121.332031 131.558594 L 245.953125 131.558594 C 250.632812 131.558594 253.554688 126.492188 251.214844 122.441406 L 188.902344 14.515625 C 186.566406 10.464844 180.71875 10.464844 178.378906 14.515625 " fill-opacity="1" fill-rule="nonzero"/><path fill="#ffffff" d="M 178.378906 14.515625 L 181.523438 16.332031 L 119.210938 124.257812 C 118.574219 125.359375 119 126.335938 119.210938 126.703125 C 119.421875 127.070312 120.054688 127.925781 121.332031 127.925781 L 245.953125 127.925781 C 247.226562 127.925781 247.859375 127.070312 248.070312 126.703125 C 248.285156 126.335938 248.707031 125.359375 248.070312 124.257812 L 185.761719 16.332031 C 185.125 15.226562 184.066406 15.105469 183.640625 15.105469 C 183.214844 15.105469 182.160156 15.226562 181.523438 16.332031 Z M 245.953125 135.1875 L 121.332031 135.1875 C 117.820312 135.1875 114.679688 133.371094 112.921875 130.332031 C 111.167969 127.292969 111.167969 123.664062 112.921875 120.625 L 175.234375 12.699219 C 176.988281 9.660156 180.132812 7.847656 183.640625 7.847656 C 187.152344 7.847656 190.292969 9.660156 192.046875 12.699219 L 254.359375 120.625 C 256.113281 123.664062 256.113281 127.292969 254.359375 130.332031 C 252.605469 133.371094 249.460938 135.1875 245.953125 135.1875 " fill-opacity="1" fill-rule="nonzero"/><path fill="#ffffff" d="M 191.640625 46.046875 L 188.234375 98.390625 C 188.207031 98.832031 187.835938 99.179688 187.390625 99.179688 L 179.890625 99.179688 C 179.445312 99.179688 179.078125 98.832031 179.046875 98.390625 L 175.640625 46.046875 C 175.609375 45.5625 175.996094 45.148438 176.484375 45.148438 L 190.800781 45.148438 C 191.289062 45.148438 191.671875 45.5625 191.640625 46.046875 " fill-opacity="1" fill-rule="nonzero"/><path fill="#ffffff" d="M 176.625 111.15625 C 176.625 107.28125 179.765625 104.140625 183.640625 104.140625 C 187.515625 104.140625 190.65625 107.28125 190.65625 111.15625 C 190.65625 115.03125 187.515625 118.171875 183.640625 118.171875 C 179.765625 118.171875 176.625 115.03125 176.625 111.15625 " fill-opacity="1" fill-rule="nonzero"/><g clip-path="url(#6d395360c7)"><path stroke-linecap="butt" transform="matrix(0.74962, 0, 0, 0.74962, -6.53205, 148.424806)" fill="none" stroke-linejoin="miter" d="M 0.00106726 2.002314 L 515.10044 2.002314 " stroke="#ffffff" stroke-width="4" stroke-opacity="1" stroke-miterlimit="4"/></g></svg>