<svg xmlns="http://www.w3.org/2000/svg" xmlns:xlink="http://www.w3.org/1999/xlink" width="500" zoomAndPan="magnify" viewBox="0 0 375 157.92" height="200" preserveAspectRatio="xMidYMid meet" version="1.0"><defs><clipPath id="8010d097f7"><path d="M 99.300781 2 L 275.460938 2 L 275.460938 138.679688 L 99.300781 138.679688 Z M 99.300781 2 " clip-rule="nonzero"/></clipPath><clipPath id="7af1742589"><path d="M 0.09375 148 L 374.902344 148 L 374.902344 149.925781 L 0.09375 149.925781 Z M 0.09375 148 " clip-rule="nonzero"/></clipPath></defs><g clip-path="url(#8010d097f7)"><path fill="#ffffff" d="M 275.574219 103.226562 C 275.671875 110.570312 275.039062 118.164062 269.808594 123.964844 C 262.113281 132.511719 249.628906 133.992188 238.617188 135.285156 C 237.433594 135.429688 236.257812 135.578125 235.109375 135.714844 C 234.554688 135.785156 234 135.824219 233.441406 135.820312 C 227.316406 135.820312 221.59375 131.492188 216.804688 123.183594 C 214.960938 119.910156 213.332031 116.53125 211.921875 113.046875 C 211.636719 115.246094 211.273438 117.429688 210.921875 119.558594 C 210.746094 120.609375 210.582031 121.640625 210.417969 122.648438 C 209.476562 128.699219 203.523438 133.167969 193.210938 135.570312 C 187.238281 136.820312 181.210938 137.679688 175.125 138.144531 L 173.679688 138.292969 C 169.175781 138.742188 164.660156 138.925781 160.199219 138.925781 C 150.027344 138.8125 139.90625 138.054688 129.832031 136.65625 C 121.261719 135.5625 112.394531 133.960938 106.410156 127.683594 C 104.710938 125.863281 103.355469 123.824219 102.332031 121.554688 C 101.195312 119.042969 100.40625 116.429688 99.964844 113.707031 C 99.453125 109.722656 99.425781 105.730469 99.890625 101.738281 C 99.976562 100.621094 100.0625 99.5 100.117188 98.394531 C 100.113281 96.527344 100.433594 94.714844 101.078125 92.960938 C 101.722656 91.207031 102.652344 89.621094 103.867188 88.203125 C 101.851562 84.910156 100.550781 81.355469 99.964844 77.539062 C 99.453125 73.550781 99.425781 69.5625 99.890625 65.566406 C 99.976562 64.449219 100.0625 63.332031 100.117188 62.226562 C 100.382812 57.523438 101.71875 54.09375 104.394531 51.496094 C 102.070312 48 100.59375 44.179688 99.964844 40.03125 C 99.453125 36.046875 99.425781 32.054688 99.890625 28.0625 C 99.976562 26.945312 100.0625 25.835938 100.117188 24.71875 C 100.523438 17.484375 103.453125 13.234375 109.917969 10.46875 C 131.554688 1.253906 158.15625 0.015625 188.980469 6.765625 C 196.226562 8.355469 203.539062 10.625 207.90625 16.410156 C 209.414062 18.511719 210.5625 20.796875 211.339844 23.265625 C 212.121094 25.730469 212.492188 28.257812 212.464844 30.84375 C 213.941406 29.988281 215.464844 29.226562 217.035156 28.554688 C 221.230469 26.914062 225.550781 25.738281 230 25.027344 C 231.242188 24.785156 232.496094 24.535156 233.714844 24.269531 C 241.597656 22.570312 246.933594 24.09375 251.550781 29.378906 C 267.101562 47.195312 275.191406 72.042969 275.574219 103.226562 Z M 270.226562 111.6875 C 271.125 108.738281 271.808594 105.738281 272.28125 102.6875 C 271.894531 78.28125 266.707031 57.914062 256.769531 41.980469 C 255.398438 40.417969 253.875 39.023438 252.199219 37.792969 C 251.453125 37.203125 250.625 36.792969 249.707031 36.554688 C 248.730469 36.382812 247.8125 36.542969 246.953125 37.035156 C 246.398438 37.621094 246.046875 38.308594 245.890625 39.097656 C 245.835938 39.261719 245.78125 39.414062 245.742188 39.566406 C 245.253906 40.996094 244.933594 42.464844 244.777344 43.96875 L 244.703125 44.722656 L 244.703125 44.769531 C 245.265625 44.464844 245.851562 44.410156 246.460938 44.605469 C 248.097656 45.089844 249.410156 46.023438 250.40625 47.410156 C 250.648438 47.683594 250.890625 47.945312 251.132812 48.199219 C 252.792969 49.878906 253.976562 51.84375 254.679688 54.097656 C 255.128906 55.539062 255.660156 56.949219 256.28125 58.328125 C 256.710938 59.335938 257.148438 60.378906 257.519531 61.425781 C 258.410156 63.949219 259.21875 66.546875 259.933594 69.144531 C 261.351562 74.359375 262.398438 79.644531 263.078125 85.003906 C 263.769531 90.554688 264.054688 96.125 263.941406 101.71875 C 263.855469 106.167969 262.277344 107.15625 260.972656 107.199219 L 260.875 107.199219 C 260.390625 107.195312 259.929688 107.085938 259.492188 106.871094 C 260.9375 109.160156 262.699219 111.171875 264.773438 112.910156 C 265.34375 113.441406 265.988281 113.847656 266.714844 114.125 C 267.410156 114.386719 268.09375 114.367188 268.769531 114.0625 C 269.570312 113.464844 270.054688 112.671875 270.226562 111.6875 Z M 269.917969 117.933594 C 270.710938 116.269531 271.277344 114.53125 271.617188 112.71875 C 271.296875 113.9375 270.597656 114.867188 269.511719 115.511719 C 268.9375 115.808594 268.328125 115.957031 267.683594 115.953125 C 267.160156 115.949219 266.652344 115.863281 266.15625 115.6875 C 265.242188 115.34375 264.425781 114.839844 263.703125 114.175781 C 261.433594 112.28125 259.519531 110.078125 257.960938 107.566406 C 257.699219 107.179688 257.410156 106.808594 257.09375 106.460938 C 256.738281 106.066406 256.414062 105.648438 256.117188 105.210938 C 255.59375 104.34375 255.128906 103.449219 254.714844 102.527344 C 254.539062 102.140625 254.367188 101.769531 254.179688 101.398438 C 253.933594 100.875 253.753906 100.332031 253.644531 99.765625 C 253.566406 99.457031 253.488281 99.148438 253.378906 98.832031 C 253.378906 98.820312 253.367188 98.820312 253.367188 98.8125 C 252.90625 97.800781 252.5 96.78125 252.128906 95.742188 C 252.105469 95.6875 252.085938 95.632812 252.0625 95.589844 L 252 95.359375 C 251.769531 94.699219 251.546875 94.039062 251.351562 93.375 C 251.296875 93.1875 251.242188 93.011719 251.203125 92.835938 C 251.019531 92.199219 250.84375 91.566406 250.667969 90.917969 C 250.613281 90.6875 250.558594 90.449219 250.492188 90.21875 C 250.347656 89.660156 250.21875 89.101562 250.078125 88.542969 C 249.988281 88.136719 249.890625 87.742188 249.800781 87.34375 C 249.738281 87.070312 249.671875 86.796875 249.617188 86.511719 C 249.5625 86.273438 249.496094 86.03125 249.441406 85.800781 C 249.125 84.398438 248.804688 82.996094 248.464844 81.601562 C 247.863281 79.214844 247.144531 76.800781 246.46875 74.457031 C 245.460938 71.035156 244.433594 67.496094 243.695312 63.925781 C 243.566406 63.289062 243.457031 62.675781 243.355469 62.070312 L 243.292969 61.65625 C 243.214844 61.160156 243.136719 60.679688 243.074219 60.207031 C 243.0625 60.078125 243.039062 59.945312 243.027344 59.824219 C 242.960938 59.308594 242.90625 58.796875 242.863281 58.289062 C 242.851562 58.21875 242.84375 58.144531 242.84375 58.070312 C 242.828125 57.996094 242.824219 57.917969 242.820312 57.839844 C 242.8125 57.761719 242.808594 57.679688 242.808594 57.597656 C 242.671875 55.796875 242.664062 53.996094 242.789062 52.195312 C 242.777344 52.050781 242.789062 51.902344 242.777344 51.746094 C 242.648438 49.339844 242.746094 46.945312 243.070312 44.558594 L 243.144531 43.8125 C 243.304688 42.179688 243.652344 40.585938 244.1875 39.035156 L 244.332031 38.59375 C 244.578125 37.449219 245.132812 36.484375 246 35.699219 C 247.25 34.929688 248.597656 34.675781 250.042969 34.945312 C 251.058594 35.179688 251.988281 35.605469 252.832031 36.214844 C 251.625 34.617188 250.386719 33.046875 249.082031 31.546875 C 248.691406 31.09375 248.28125 30.664062 247.84375 30.253906 C 246.9375 29.316406 245.847656 28.730469 244.566406 28.492188 C 244.5 28.492188 244.433594 28.503906 244.367188 28.503906 C 242.988281 28.65625 241.464844 30.070312 240.09375 32.472656 C 239.644531 33.269531 239.265625 34.101562 238.953125 34.964844 C 237.808594 38.652344 237.351562 42.421875 237.585938 46.277344 C 237.980469 75.398438 245.574219 99.347656 260.183594 117.441406 C 262.792969 120.6875 264.953125 121.726562 266.773438 120.632812 C 267.980469 119.921875 269.027344 119.023438 269.917969 117.9375 Z M 265.917969 123.214844 C 265.707031 123.242188 265.496094 123.257812 265.28125 123.257812 C 263.132812 123.257812 260.84375 121.769531 258.453125 118.808594 C 243.535156 100.320312 235.765625 75.921875 235.371094 46.292969 C 235.359375 45.8125 235.359375 45.320312 235.359375 44.828125 C 235.234375 41.195312 235.738281 37.652344 236.875 34.195312 C 237.230469 33.222656 237.664062 32.28125 238.175781 31.378906 C 239.058594 29.640625 240.304688 28.21875 241.914062 27.117188 C 239.386719 26.726562 236.882812 26.847656 234.40625 27.476562 C 233.539062 27.664062 232.664062 27.839844 231.796875 28.003906 C 228.585938 31.792969 227.90625 36.871094 227.699219 41.847656 C 227.316406 53.773438 228.308594 65.585938 230.675781 77.28125 C 233.042969 88.976562 236.722656 100.242188 241.71875 111.082031 C 244.894531 118.097656 249.199219 125.5625 257.148438 128.300781 C 260.402344 127.175781 263.324219 125.480469 265.917969 123.21875 Z M 262.277344 101.691406 C 262.390625 96.179688 262.105469 90.6875 261.425781 85.21875 C 260.761719 79.933594 259.726562 74.726562 258.320312 69.589844 C 257.632812 67.023438 256.832031 64.46875 255.953125 61.980469 C 255.605469 60.972656 255.164062 59.953125 254.75 58.96875 C 254.097656 57.53125 253.542969 56.058594 253.082031 54.550781 C 252.449219 52.5625 251.398438 50.828125 249.925781 49.34375 C 249.664062 49.082031 249.410156 48.785156 249.160156 48.5 C 248.390625 47.394531 247.363281 46.632812 246.078125 46.21875 C 245.914062 46.160156 245.742188 46.140625 245.566406 46.15625 C 245.519531 46.195312 245.488281 46.246094 245.464844 46.300781 C 245.433594 46.367188 245.398438 46.449219 245.367188 46.511719 C 245.808594 46.503906 246.234375 46.59375 246.636719 46.773438 C 247.492188 47.253906 248.144531 47.925781 248.597656 48.789062 L 248.960938 49.375 C 250.222656 51.292969 251.359375 53.28125 252.371094 55.339844 C 253.53125 57.796875 254.585938 60.335938 255.527344 62.890625 C 257.394531 68.023438 258.796875 73.28125 259.722656 78.664062 C 260.078125 80.691406 260.359375 82.769531 260.570312 84.824219 C 260.941406 88.460938 261.09375 92.167969 261.25 95.75 L 261.5 101.539062 C 261.664062 102.679688 261.414062 103.726562 260.753906 104.671875 C 260.53125 104.925781 260.261719 105.121094 259.953125 105.257812 C 260.238281 105.460938 260.550781 105.5625 260.898438 105.566406 C 261.71875 105.539062 262.234375 104.089844 262.277344 101.691406 Z M 259.914062 103.960938 C 260.390625 103.234375 260.554688 102.441406 260.40625 101.582031 L 260.152344 95.792969 C 260.007812 92.222656 259.847656 88.539062 259.472656 84.933594 C 259.265625 82.90625 258.992188 80.855469 258.640625 78.847656 C 257.726562 73.535156 256.34375 68.34375 254.496094 63.277344 C 253.566406 60.742188 252.523438 58.234375 251.382812 55.8125 C 250.390625 53.789062 249.269531 51.839844 248.03125 49.957031 L 247.667969 49.386719 C 247.328125 48.699219 246.828125 48.164062 246.167969 47.773438 C 245.800781 47.621094 245.425781 47.582031 245.039062 47.667969 C 244.941406 48.117188 244.875 48.574219 244.808594 49.035156 C 244.773438 49.289062 244.742188 49.53125 244.699219 49.757812 C 244.578125 50.570312 244.492188 51.402344 244.425781 52.253906 C 244.457031 53.085938 244.457031 53.929688 244.425781 54.746094 C 244.402344 55.6875 244.378906 56.578125 244.433594 57.464844 C 244.457031 57.628906 244.457031 57.792969 244.46875 57.957031 C 244.480469 58.027344 244.488281 58.097656 244.492188 58.167969 C 244.535156 58.648438 244.589844 59.152344 244.65625 59.644531 C 244.664062 59.765625 244.6875 59.886719 244.699219 60.007812 C 244.761719 60.46875 244.828125 60.9375 244.90625 61.410156 L 244.972656 61.804688 C 245.070312 62.390625 245.179688 62.988281 245.300781 63.589844 C 246.011719 67.097656 247.042969 70.605469 248.039062 73.992188 C 248.730469 76.351562 249.445312 78.785156 250.046875 81.207031 C 250.398438 82.585938 250.714844 83.992188 251.03125 85.402344 C 251.109375 85.710938 251.179688 86.015625 251.242188 86.324219 C 251.285156 86.5 251.328125 86.671875 251.375 86.859375 L 251.703125 88.273438 C 251.8125 88.746094 251.933594 89.21875 252.050781 89.6875 C 252.117188 89.949219 252.183594 90.226562 252.25 90.5 C 252.398438 91.085938 252.566406 91.652344 252.730469 92.230469 C 252.796875 92.460938 252.863281 92.691406 252.941406 92.921875 C 253.117188 93.507812 253.300781 94.09375 253.5 94.679688 C 253.566406 94.867188 253.632812 95.054688 253.695312 95.25 C 253.871094 95.722656 254.070312 96.203125 254.285156 96.664062 C 254.46875 97.125 254.65625 97.574219 254.832031 98.023438 C 255.875 100.382812 257.269531 102.511719 259.007812 104.414062 C 259.363281 104.367188 259.664062 104.21875 259.914062 103.960938 Z M 250.859375 130.101562 C 252.179688 129.816406 253.476562 129.488281 254.738281 129.101562 C 247.402344 125.730469 243.285156 118.542969 240.226562 111.765625 C 235.179688 100.808594 231.457031 89.421875 229.0625 77.597656 C 226.667969 65.777344 225.667969 53.835938 226.054688 41.78125 C 226.242188 37.34375 226.832031 32.464844 229.398438 28.488281 C 228.148438 28.738281 226.921875 28.992188 225.714844 29.265625 C 222.132812 33.101562 221.417969 38.394531 221.199219 43.578125 C 220.816406 55.507812 221.808594 67.320312 224.175781 79.015625 C 226.546875 90.710938 230.230469 101.980469 235.230469 112.816406 C 238.417969 119.886719 242.78125 127.414062 250.859375 130.101562 Z M 243.816406 131.328125 C 245.175781 131.140625 246.546875 130.933594 247.925781 130.695312 C 240.789062 127.25 236.757812 120.171875 233.742188 113.496094 C 228.695312 102.539062 224.972656 91.152344 222.578125 79.332031 C 220.183594 67.507812 219.183594 55.570312 219.570312 43.515625 C 219.765625 38.964844 220.382812 33.957031 223.109375 29.921875 C 221.894531 30.261719 220.710938 30.644531 219.535156 31.085938 C 216.140625 34.910156 215.4375 40.09375 215.21875 45.179688 C 214.835938 57.105469 215.824219 68.917969 218.191406 80.613281 C 220.558594 92.308594 224.238281 103.578125 229.230469 114.417969 C 232.289062 121.164062 236.402344 128.351562 243.808594 131.328125 Z M 238.242188 132.019531 C 239.097656 131.917969 239.964844 131.820312 240.839844 131.710938 C 234.386719 128.105469 230.605469 121.421875 227.742188 115.097656 C 222.695312 104.140625 218.976562 92.753906 216.585938 80.929688 C 214.191406 69.109375 213.191406 57.167969 213.582031 45.113281 C 213.757812 40.871094 214.304688 36.238281 216.574219 32.378906 C 214.898438 33.183594 213.300781 34.121094 211.773438 35.183594 C 210.023438 38.851562 209.175781 42.714844 209.230469 46.78125 C 208.847656 58.707031 209.839844 70.519531 212.210938 82.214844 C 214.582031 93.914062 218.265625 105.179688 223.261719 116.015625 C 226.097656 122.296875 229.863281 128.972656 236.347656 132.25 C 236.972656 132.167969 237.589844 132.097656 238.230469 132.019531 Z M 219.652344 121.539062 C 222.613281 126.675781 227.382812 132.566406 233.539062 132.523438 C 227.875 128.785156 224.410156 122.582031 221.746094 116.679688 C 216.699219 105.726562 212.976562 94.335938 210.582031 82.515625 C 208.191406 70.691406 207.1875 58.753906 207.574219 46.699219 C 207.628906 43.515625 208.117188 40.402344 209.042969 37.359375 C 207.984375 38.320312 207.027344 39.375 206.183594 40.527344 C 201.488281 47.070312 201.972656 55.257812 202.871094 63.074219 C 204.320312 75.710938 206.53125 90.484375 211.957031 104.261719 L 212.472656 105.582031 C 214.46875 111.082031 216.863281 116.398438 219.652344 121.539062 Z M 209.152344 33.003906 C 209.175781 32.214844 209.164062 31.4375 209.132812 30.65625 C 203.871094 36.230469 195.660156 38.121094 188.140625 39.195312 C 179.019531 40.507812 169.847656 41.164062 160.632812 41.167969 C 145.300781 41.226562 130.222656 39.292969 115.398438 35.371094 C 111.039062 34.1875 106.335938 32.554688 103.089844 29.394531 C 103.015625 30.46875 102.945312 31.523438 102.894531 32.574219 C 105.730469 36.5 110.753906 38.351562 115.828125 39.722656 C 127.59375 42.773438 139.542969 44.617188 151.679688 45.253906 C 163.816406 45.894531 175.894531 45.3125 187.914062 43.515625 C 193.273438 42.953125 198.371094 41.480469 203.203125 39.097656 C 203.300781 38.933594 203.402344 38.777344 203.511719 38.613281 C 205.101562 36.453125 206.980469 34.582031 209.152344 33.003906 Z M 209.152344 106.132812 L 208.890625 105.476562 C 208.8125 105.269531 208.746094 105.046875 208.660156 104.839844 C 203.390625 110.023438 195.429688 111.820312 188.140625 112.863281 C 179.019531 114.179688 169.847656 114.84375 160.632812 114.847656 C 145.296875 114.90625 130.21875 112.96875 115.398438 109.035156 C 111.039062 107.863281 106.335938 106.230469 103.089844 103.070312 C 103.003906 104.167969 102.945312 105.242188 102.894531 106.300781 C 105.765625 110.222656 111.003906 112.085938 115.828125 113.390625 C 127.59375 116.4375 139.542969 118.28125 151.679688 118.917969 C 163.816406 119.554688 175.894531 118.972656 187.914062 117.171875 C 195.738281 116.054688 204.332031 114.035156 209.101562 107.769531 C 209.132812 107.230469 209.144531 106.679688 209.152344 106.128906 Z M 208.460938 114.070312 C 208.625 112.894531 208.78125 111.710938 208.890625 110.527344 C 203.628906 115.910156 195.550781 117.75 188.140625 118.816406 C 179.019531 120.125 169.847656 120.78125 160.632812 120.789062 C 145.300781 120.84375 130.222656 118.910156 115.398438 114.984375 C 110.929688 113.769531 106.105469 112.09375 102.851562 108.78125 C 102.855469 109.851562 102.921875 110.921875 103.046875 111.984375 C 105.953125 115.765625 111.09375 117.597656 115.828125 118.878906 C 127.59375 121.925781 139.542969 123.769531 151.679688 124.40625 C 163.816406 125.042969 175.894531 124.460938 187.914062 122.660156 C 195.386719 121.585938 203.585938 119.710938 208.460938 114.066406 Z M 207.671875 119.023438 C 207.796875 118.300781 207.914062 117.566406 208.035156 116.832031 C 202.773438 121.578125 195.15625 123.285156 188.140625 124.296875 C 179.019531 125.605469 169.847656 126.261719 160.632812 126.269531 C 145.300781 126.324219 130.222656 124.390625 115.398438 120.464844 C 111.246094 119.339844 106.785156 117.804688 103.5625 114.933594 C 103.917969 116.503906 104.410156 118.03125 105.042969 119.511719 C 108.296875 121.878906 111.894531 123.492188 115.828125 124.355469 C 127.59375 127.402344 139.542969 129.246094 151.679688 129.882812 C 163.816406 130.519531 175.894531 129.9375 187.914062 128.136719 C 194.886719 127.136719 202.457031 125.4375 207.414062 120.652344 C 207.5 120.105469 207.585938 119.570312 207.671875 119.019531 Z M 208.96875 28.335938 C 208.6875 25.269531 207.761719 22.414062 206.199219 19.761719 C 205.90625 21.898438 203.789062 23.75 199.839844 25.265625 C 193.175781 27.761719 186.339844 29.621094 179.328125 30.851562 C 172.320312 32.082031 165.253906 32.65625 158.136719 32.574219 C 146.042969 32.492188 134.097656 31.125 122.296875 28.46875 C 120.34375 28.070312 118.414062 27.574219 116.507812 26.976562 C 114.503906 26.355469 112.597656 25.511719 110.789062 24.445312 C 109.929688 23.929688 109.117188 23.34375 108.359375 22.6875 C 106.859375 21.554688 105.761719 20.113281 105.058594 18.371094 C 103.984375 20.414062 103.429688 22.59375 103.40625 24.902344 C 103.359375 25.648438 103.304688 26.394531 103.25 27.140625 C 106.183594 30.757812 111.199219 32.53125 115.824219 33.78125 C 127.589844 36.828125 139.539062 38.671875 151.675781 39.308594 C 163.8125 39.945312 175.890625 39.363281 187.910156 37.5625 C 195.660156 36.453125 204.167969 34.472656 208.96875 28.332031 Z M 208.015625 103.121094 C 207.058594 100.523438 206.21875 97.894531 205.460938 95.261719 C 203.945312 97.03125 202.074219 98.253906 199.847656 98.929688 C 193.183594 101.421875 186.34375 103.285156 179.332031 104.511719 C 172.324219 105.742188 165.261719 106.316406 158.144531 106.242188 C 146.050781 106.160156 134.101562 104.789062 122.304688 102.132812 C 120.347656 101.730469 118.417969 101.230469 116.515625 100.632812 C 114.507812 100.019531 112.601562 99.179688 110.792969 98.109375 C 109.933594 97.59375 109.121094 97.011719 108.359375 96.363281 C 106.863281 95.226562 105.761719 93.789062 105.0625 92.046875 C 103.984375 94.089844 103.433594 96.265625 103.40625 98.574219 C 103.363281 99.320312 103.308594 100.066406 103.253906 100.808594 C 106.1875 104.425781 111.199219 106.191406 115.824219 107.453125 C 127.589844 110.5 139.542969 112.34375 151.679688 112.980469 C 163.816406 113.617188 175.894531 113.035156 187.914062 111.234375 C 195.167969 110.195312 203.09375 108.386719 208.015625 103.121094 Z M 204.292969 90.917969 C 204.136719 90.304688 203.984375 89.703125 203.84375 89.085938 C 198.875 91.519531 193.644531 93.023438 188.144531 93.601562 C 179.023438 94.910156 169.851562 95.570312 160.636719 95.574219 C 145.300781 95.628906 130.222656 93.695312 115.398438 89.773438 C 112.335938 89.023438 109.414062 87.902344 106.632812 86.417969 C 107.261719 87.429688 107.984375 88.371094 108.796875 89.242188 C 114.027344 94.742188 122.257812 96.199219 130.25 97.21875 C 143.117188 98.863281 158.296875 100.34375 173.355469 98.839844 L 174.800781 98.695312 C 180.742188 98.242188 186.625 97.410156 192.457031 96.203125 C 196.582031 95.234375 201.304688 93.601562 204.292969 90.917969 Z M 199.058594 23.226562 C 204.757812 21.035156 204.132812 19.160156 203.925781 18.546875 C 203.550781 17.398438 202.988281 16.351562 202.238281 15.402344 C 201.011719 14.492188 199.703125 13.722656 198.316406 13.089844 C 198.925781 13.550781 199.339844 14.152344 199.554688 14.886719 C 199.675781 15.425781 199.671875 15.964844 199.542969 16.5 C 199.414062 17.039062 199.171875 17.519531 198.820312 17.945312 C 198.210938 18.660156 197.496094 19.25 196.671875 19.707031 C 194.164062 21.226562 191.488281 22.355469 188.648438 23.09375 C 188.191406 23.226562 187.746094 23.390625 187.3125 23.585938 C 186.835938 23.800781 186.347656 23.976562 185.847656 24.121094 C 184.851562 24.378906 183.847656 24.574219 182.832031 24.710938 C 182.417969 24.765625 181.988281 24.828125 181.582031 24.90625 C 181.011719 24.992188 180.4375 25.023438 179.863281 24.996094 C 179.53125 24.996094 179.203125 24.984375 178.855469 25.003906 L 178.613281 25.039062 C 177.625 25.183594 176.628906 25.277344 175.621094 25.355469 L 175.300781 25.390625 C 175.222656 25.386719 175.140625 25.390625 175.0625 25.398438 C 174.675781 25.421875 174.292969 25.433594 173.921875 25.453125 C 173.570312 25.464844 173.222656 25.488281 172.878906 25.5 C 172.660156 25.5 172.453125 25.5 172.246094 25.507812 C 171.75 25.507812 171.269531 25.519531 170.789062 25.519531 C 168.824219 25.519531 166.886719 25.464844 164.964844 25.398438 C 163.511719 25.355469 162.03125 25.3125 160.566406 25.289062 C 158.046875 25.257812 155.46875 25.3125 152.980469 25.367188 C 150.472656 25.421875 147.90625 25.464844 145.34375 25.433594 C 144.179688 25.421875 143.019531 25.390625 141.867188 25.332031 C 141.210938 25.300781 140.574219 25.257812 139.949219 25.203125 L 139.523438 25.167969 C 139.027344 25.125 138.523438 25.070312 138.042969 25.023438 C 137.910156 25.011719 137.78125 25 137.648438 24.976562 C 137.121094 24.910156 136.605469 24.847656 136.101562 24.769531 L 135.871094 24.738281 L 135.640625 24.703125 C 135.566406 24.695312 135.488281 24.671875 135.402344 24.660156 C 133.597656 24.371094 131.820312 23.96875 130.066406 23.457031 C 129.921875 23.421875 129.761719 23.378906 129.605469 23.355469 C 127.226562 22.921875 124.894531 22.296875 122.613281 21.484375 L 121.890625 21.242188 C 120.347656 20.742188 118.871094 20.089844 117.464844 19.28125 L 117.070312 19.050781 C 116.027344 18.613281 115.214844 17.910156 114.636719 16.933594 C 114.414062 16.3125 114.328125 15.671875 114.382812 15.011719 C 114.4375 14.351562 114.628906 13.730469 114.953125 13.152344 C 115.335938 12.523438 115.816406 11.972656 116.390625 11.507812 C 114.636719 12.121094 112.894531 12.78125 111.207031 13.492188 C 110.4375 13.816406 109.699219 14.1875 108.980469 14.609375 C 108.070312 15.195312 107.160156 15.914062 107.027344 16.664062 C 106.832031 17.792969 107.808594 19.339844 109.78125 21.015625 C 110.453125 21.589844 111.167969 22.105469 111.929688 22.5625 C 115.335938 24.40625 118.949219 25.65625 122.769531 26.320312 C 151.65625 32.628906 177.324219 31.589844 199.058594 23.226562 Z M 203.460938 87.410156 C 203.21875 86.324219 202.976562 85.238281 202.757812 84.164062 C 198.089844 86.234375 193.21875 87.554688 188.144531 88.125 C 179.019531 89.433594 169.851562 90.089844 160.632812 90.097656 C 145.300781 90.152344 130.222656 88.21875 115.398438 84.296875 C 111.246094 83.167969 106.785156 81.632812 103.5625 78.761719 C 103.917969 80.335938 104.410156 81.863281 105.042969 83.34375 C 108.296875 85.710938 111.894531 87.324219 115.828125 88.183594 C 127.59375 91.234375 139.542969 93.078125 151.679688 93.71875 C 163.816406 94.355469 175.894531 93.773438 187.914062 91.972656 C 193.21875 91.214844 198.871094 90.039062 203.453125 87.410156 Z M 202.433594 82.488281 C 202.222656 81.371094 202.015625 80.242188 201.820312 79.136719 C 197.421875 80.925781 192.867188 82.09375 188.152344 82.644531 C 179.027344 83.953125 169.855469 84.609375 160.640625 84.617188 C 145.304688 84.671875 130.222656 82.742188 115.398438 78.816406 C 110.925781 77.597656 106.101562 75.921875 102.847656 72.609375 C 102.855469 73.679688 102.917969 74.75 103.046875 75.8125 C 105.949219 79.589844 111.089844 81.421875 115.824219 82.707031 C 127.589844 85.753906 139.542969 87.597656 151.679688 88.234375 C 163.816406 88.871094 175.894531 88.289062 187.914062 86.488281 C 192.96875 85.945312 197.804688 84.613281 202.421875 82.488281 Z M 192.46875 132.363281 C 198.269531 131.003906 205.261719 128.351562 206.90625 123.253906 C 201.722656 127.277344 194.671875 128.828125 188.152344 129.765625 C 179.027344 131.074219 169.855469 131.730469 160.640625 131.738281 C 145.304688 131.796875 130.226562 129.867188 115.398438 125.945312 C 112.335938 125.195312 109.414062 124.078125 106.632812 122.59375 C 107.261719 123.601562 107.984375 124.542969 108.800781 125.410156 C 114.027344 130.914062 122.261719 132.371094 130.25 133.390625 C 143.117188 135.03125 158.296875 136.511719 173.359375 135.011719 L 174.804688 134.863281 C 180.742188 134.410156 186.628906 133.578125 192.460938 132.371094 Z M 201.527344 77.453125 C 201.304688 76.148438 201.109375 74.84375 200.910156 73.5625 C 196.785156 75.121094 192.53125 76.160156 188.148438 76.683594 C 179.027344 78.003906 169.855469 78.664062 160.640625 78.667969 C 145.304688 78.730469 130.222656 76.796875 115.398438 72.867188 C 111.039062 71.691406 106.335938 70.058594 103.089844 66.902344 C 103.003906 68 102.945312 69.074219 102.894531 70.128906 C 105.765625 74.054688 111.003906 75.917969 115.828125 77.222656 C 127.59375 80.269531 139.542969 82.113281 151.679688 82.75 C 163.816406 83.386719 175.894531 82.804688 187.914062 81.003906 C 192.621094 80.472656 197.160156 79.289062 201.527344 77.453125 Z M 200.046875 46.058594 C 200.441406 44.542969 200.992188 43.082031 201.691406 41.675781 C 197.328125 43.433594 192.8125 44.585938 188.140625 45.136719 C 179.019531 46.445312 169.847656 47.101562 160.632812 47.109375 C 145.296875 47.171875 130.222656 45.238281 115.398438 41.308594 C 110.929688 40.105469 106.105469 38.417969 102.851562 35.105469 C 102.855469 36.160156 102.917969 37.207031 103.035156 38.253906 C 105.898438 42.046875 110.839844 43.855469 115.828125 45.203125 C 127.589844 48.253906 139.542969 50.097656 151.679688 50.734375 C 163.816406 51.375 175.894531 50.792969 187.914062 48.992188 C 192.070312 48.488281 196.113281 47.511719 200.046875 46.066406 Z M 200.671875 71.878906 C 200.265625 68.996094 199.925781 66.179688 199.605469 63.460938 C 199.585938 63.261719 199.5625 63.066406 199.542969 62.875 C 192.917969 65.328125 186.128906 67.164062 179.171875 68.375 C 172.214844 69.585938 165.207031 70.15625 158.144531 70.082031 C 146.050781 70 134.101562 68.632812 122.304688 65.976562 C 120.347656 65.574219 118.417969 65.070312 116.515625 64.472656 C 114.507812 63.859375 112.601562 63.019531 110.792969 61.953125 C 109.933594 61.433594 109.121094 60.847656 108.359375 60.195312 C 106.859375 59.058594 105.761719 57.621094 105.058594 55.875 C 103.980469 57.921875 103.429688 60.097656 103.40625 62.410156 C 103.359375 63.15625 103.304688 63.902344 103.25 64.644531 C 106.183594 68.261719 111.199219 70.027344 115.824219 71.289062 C 127.589844 74.335938 139.539062 76.179688 151.675781 76.816406 C 163.8125 77.453125 175.890625 76.871094 187.910156 75.070312 C 192.300781 74.554688 196.554688 73.488281 200.671875 71.878906 Z M 199.304688 60.625 C 199.292969 60.4375 199.273438 60.238281 199.261719 60.054688 C 197.285156 60.808594 195.265625 61.425781 193.199219 61.894531 C 187.230469 63.144531 181.203125 64.003906 175.121094 64.46875 L 173.675781 64.617188 C 169.171875 65.066406 164.652344 65.253906 160.203125 65.253906 C 150.035156 65.136719 139.914062 64.382812 129.839844 62.984375 C 121.554688 61.933594 112.996094 60.386719 107.03125 54.597656 C 107.234375 55.402344 107.574219 56.140625 108.046875 56.816406 C 108.523438 57.496094 109.101562 58.066406 109.785156 58.527344 C 110.460938 59.101562 111.175781 59.617188 111.933594 60.074219 C 115.34375 61.917969 118.957031 63.171875 122.773438 63.835938 C 151.65625 70.140625 177.324219 69.085938 199.050781 60.722656 C 199.15625 60.6875 199.222656 60.65625 199.304688 60.625 Z M 199.113281 51.898438 C 199.203125 50.585938 199.367188 49.28125 199.605469 47.984375 C 195.875 49.246094 192.050781 50.125 188.140625 50.617188 C 179.019531 51.925781 169.847656 52.582031 160.632812 52.589844 C 145.296875 52.652344 130.222656 50.71875 115.398438 46.792969 C 111.246094 45.664062 106.785156 44.128906 103.5625 41.269531 C 103.921875 42.84375 104.414062 44.375 105.042969 45.863281 C 108.296875 48.230469 111.894531 49.835938 115.828125 50.683594 C 127.59375 53.734375 139.542969 55.574219 151.679688 56.214844 C 163.816406 56.851562 175.894531 56.273438 187.914062 54.476562 C 191.734375 53.992188 195.46875 53.132812 199.113281 51.898438 Z M 199.046875 56.59375 C 199.015625 55.617188 199.003906 54.640625 199.035156 53.664062 C 195.480469 54.8125 191.847656 55.617188 188.140625 56.089844 C 179.019531 57.398438 169.847656 58.054688 160.632812 58.0625 C 145.300781 58.125 130.222656 56.195312 115.398438 52.269531 C 112.335938 51.519531 109.414062 50.402344 106.632812 48.917969 C 107.261719 49.929688 107.984375 50.871094 108.796875 51.746094 C 114.027344 57.246094 122.257812 58.695312 130.25 59.710938 C 143.117188 61.355469 158.296875 62.835938 173.355469 61.347656 L 174.800781 61.191406 C 180.742188 60.742188 186.628906 59.914062 192.457031 58.699219 C 194.714844 58.1875 196.910156 57.484375 199.046875 56.601562 Z M 197.515625 16.929688 C 197.921875 16.457031 198.070312 15.917969 197.960938 15.304688 C 197.753906 14.527344 196.855469 14 196.035156 13.5625 C 193.519531 12.203125 190.925781 11.003906 188.257812 9.96875 C 163.5625 4.554688 141.699219 4.378906 123.042969 9.417969 C 121.363281 10.175781 119.761719 11.078125 118.242188 12.125 C 117.492188 12.609375 116.871094 13.222656 116.378906 13.96875 C 115.972656 14.699219 115.894531 15.46875 116.136719 16.269531 C 116.367188 16.785156 117.234375 17.257812 117.859375 17.605469 L 118.289062 17.847656 C 119.597656 18.601562 120.972656 19.210938 122.40625 19.679688 L 123.132812 19.910156 C 123.152344 19.921875 123.171875 19.929688 123.195312 19.929688 C 123.109375 19.371094 123.230469 18.863281 123.558594 18.40625 C 124.523438 17.066406 125.796875 16.148438 127.375 15.65625 C 127.703125 15.507812 128.03125 15.371094 128.347656 15.214844 C 130.464844 14.179688 132.699219 13.621094 135.054688 13.535156 C 136.597656 13.484375 138.132812 13.355469 139.660156 13.140625 C 140.777344 12.996094 141.917969 12.855469 143.046875 12.792969 C 145.773438 12.605469 148.546875 12.496094 151.289062 12.484375 C 162.511719 12.429688 173.566406 13.761719 184.453125 16.472656 C 186.84375 17.0625 188.292969 17.832031 188.882812 18.832031 C 189.179688 19.324219 189.25 19.851562 189.101562 20.410156 C 188.996094 20.78125 188.816406 21.113281 188.5625 21.40625 C 191.128906 20.710938 193.546875 19.679688 195.820312 18.304688 C 196.46875 17.953125 197.03125 17.496094 197.515625 16.933594 Z M 187.507812 19.972656 C 187.535156 19.859375 187.519531 19.753906 187.453125 19.65625 C 187.296875 19.394531 186.652344 18.703125 184.054688 18.054688 C 173.296875 15.382812 162.378906 14.074219 151.292969 14.128906 C 148.585938 14.140625 145.847656 14.238281 143.148438 14.421875 C 142.0625 14.5 140.949219 14.628906 139.863281 14.773438 C 138.273438 14.992188 136.675781 15.128906 135.070312 15.179688 C 132.960938 15.265625 130.953125 15.773438 129.058594 16.703125 C 128.730469 16.867188 128.378906 17.019531 128.03125 17.164062 C 126.789062 17.539062 125.769531 18.242188 124.972656 19.265625 C 124.914062 19.359375 124.867188 19.453125 124.824219 19.550781 C 124.84375 19.574219 124.867188 19.59375 124.890625 19.609375 C 124.972656 19.679688 125.058594 19.738281 125.152344 19.792969 C 125.273438 19.402344 125.476562 19.054688 125.757812 18.753906 C 126.476562 18.121094 127.308594 17.722656 128.25 17.546875 L 128.917969 17.359375 C 131.148438 16.722656 133.40625 16.203125 135.695312 15.804688 C 138.421875 15.378906 141.21875 15.058594 143.96875 14.839844 C 149.519531 14.410156 155.066406 14.410156 160.617188 14.839844 C 162.722656 15.003906 164.835938 15.234375 166.925781 15.519531 C 170.59375 16.035156 174.300781 16.734375 177.875 17.425781 L 183.660156 18.53125 C 184.785156 18.632812 185.746094 19.082031 186.542969 19.878906 C 186.730469 20.132812 186.855469 20.417969 186.917969 20.726562 C 187.199219 20.546875 187.398438 20.296875 187.507812 19.980469 Z M 185.875 21.292969 C 185.894531 21.03125 185.828125 20.789062 185.675781 20.570312 C 185.042969 19.984375 184.300781 19.664062 183.441406 19.609375 L 177.664062 18.5 C 174.089844 17.820312 170.410156 17.109375 166.757812 16.605469 C 164.699219 16.320312 162.605469 16.101562 160.523438 15.9375 C 155.03125 15.507812 149.539062 15.507812 144.046875 15.9375 C 141.320312 16.144531 138.558594 16.460938 135.851562 16.890625 C 133.605469 17.28125 131.386719 17.792969 129.195312 18.425781 L 128.527344 18.597656 C 127.78125 18.730469 127.117188 19.035156 126.535156 19.519531 C 126.324219 19.742188 126.195312 20.007812 126.148438 20.308594 C 126.566406 20.484375 126.984375 20.648438 127.410156 20.800781 C 127.652344 20.878906 127.882812 20.964844 128.089844 21.054688 C 128.867188 21.347656 129.667969 21.613281 130.480469 21.855469 C 131.324219 22.019531 132.15625 22.214844 132.972656 22.425781 C 133.855469 22.65625 134.769531 22.886719 135.671875 23.039062 C 135.835938 23.058594 135.988281 23.09375 136.152344 23.113281 L 136.382812 23.148438 C 136.863281 23.222656 137.367188 23.292969 137.875 23.34375 C 137.992188 23.367188 138.125 23.378906 138.257812 23.386719 C 138.726562 23.445312 139.199219 23.488281 139.691406 23.535156 C 139.824219 23.546875 139.953125 23.566406 140.097656 23.578125 C 140.699219 23.621094 141.324219 23.664062 141.949219 23.699219 C 145.617188 23.886719 149.335938 23.808594 152.945312 23.730469 L 156.222656 23.664062 C 156.625 23.664062 157.019531 23.664062 157.414062 23.65625 C 157.929688 23.65625 158.441406 23.644531 158.949219 23.644531 C 159.496094 23.644531 160.046875 23.644531 160.59375 23.65625 C 162.050781 23.675781 163.519531 23.722656 164.996094 23.765625 C 165.203125 23.773438 165.410156 23.773438 165.628906 23.785156 L 166.714844 23.820312 L 167.8125 23.851562 C 168.398438 23.863281 168.996094 23.875 169.570312 23.875 C 169.824219 23.886719 170.0625 23.886719 170.304688 23.886719 C 170.941406 23.886719 171.585938 23.886719 172.222656 23.875 C 172.441406 23.863281 172.671875 23.863281 172.890625 23.863281 C 173.539062 23.839844 174.171875 23.808594 174.820312 23.773438 C 175.007812 23.765625 175.203125 23.742188 175.40625 23.730469 C 175.921875 23.6875 176.449219 23.632812 176.972656 23.566406 C 177.476562 23.5 177.980469 23.445312 178.488281 23.402344 C 181.046875 23.050781 183.511719 22.347656 185.875 21.296875 Z M 187.945312 100.417969 C 183.691406 101.121094 179.363281 101.558594 175.121094 101.976562 L 173.675781 102.121094 C 169.171875 102.570312 164.652344 102.757812 160.191406 102.757812 C 150.023438 102.640625 139.90625 101.878906 129.832031 100.480469 C 122.148438 99.5 114.203125 98.109375 108.339844 93.273438 C 108.785156 93.789062 109.265625 94.261719 109.785156 94.699219 C 110.460938 95.269531 111.179688 95.785156 111.933594 96.242188 C 115.34375 98.089844 118.957031 99.339844 122.773438 100.003906 C 146.875 105.265625 168.730469 105.386719 187.945312 100.421875 Z M 187.945312 100.417969 " fill-opacity="1" fill-rule="nonzero"/></g><g clip-path="url(#7af1742589)"><path stroke-linecap="butt" transform="matrix(0.74962, 0.000000000000000083, -0.000000000000000083, 0.74962, -4.204246, 148.424806)" fill="none" stroke-linejoin="miter" d="M 0.00149554 2.002314 L 511.94823 2.002314 " stroke="#ffffff" stroke-width="4" stroke-opacity="1" stroke-miterlimit="4"/></g></svg>