<svg xmlns="http://www.w3.org/2000/svg" xmlns:xlink="http://www.w3.org/1999/xlink" width="500" zoomAndPan="magnify" viewBox="0 0 375 149.999998" height="200" preserveAspectRatio="xMidYMid meet" version="1.0"><path fill="#ffffff" d="M 75.796875 78.1875 L 77.613281 76.863281 C 73.449219 77.695312 70.097656 79.0625 67.195312 81.464844 C 60.855469 86.695312 57.535156 93.691406 55.574219 101.476562 C 55.21875 102.878906 55.210938 104.839844 54.289062 105.527344 C 52.21875 107.074219 52.386719 109.390625 51.453125 111.292969 C 50.039062 114.191406 47.449219 114.769531 44.613281 114.679688 C 37.328125 114.449219 30.050781 113.957031 22.765625 113.9375 C 18.386719 113.9375 13.964844 114.5 9.589844 115.007812 C 6.957031 115.3125 6.007812 114.828125 6.226562 112.167969 C 6.386719 110.179688 5.753906 108.703125 4.695312 107.101562 C 0.0195312 100.007812 0.0664062 99.972656 2.738281 91.941406 C 2.738281 91.878906 2.785156 91.820312 2.804688 91.753906 C 4.398438 86.957031 4.398438 86.957031 9.402344 86.453125 C 10.171875 80.96875 14.492188 78.183594 18.421875 75.308594 C 22.734375 72.148438 27.433594 69.523438 31.882812 66.554688 C 32.679688 66.015625 33.53125 64.925781 33.621094 64.023438 C 33.992188 60.117188 35.492188 58.269531 39.121094 56.992188 C 41.722656 56.078125 44.085938 54.488281 46.683594 53.589844 C 48.433594 52.992188 49.703125 51.332031 51.714844 51.429688 C 51.785156 51.421875 51.84375 51.394531 51.886719 51.339844 C 53.796875 48.246094 57.953125 48.753906 60.246094 46.082031 C 60.953125 45.261719 62.914062 45.492188 64.300781 45.285156 C 65.042969 45.175781 65.894531 45.394531 66.53125 45.09375 C 80.859375 38.234375 95.761719 32.933594 110.707031 27.710938 C 112.988281 26.917969 114.652344 25.953125 114.65625 23.261719 C 114.65625 21.746094 115.980469 21.539062 117.011719 21.304688 C 120.804688 20.4375 124.59375 19.523438 128.433594 18.917969 C 143.621094 16.476562 158.90625 15.203125 174.289062 15.105469 C 182.566406 15.054688 190.851562 14.9375 199.039062 16.488281 C 200.511719 16.765625 202.101562 16.929688 202.371094 18.957031 C 202.414062 19.308594 202.960938 19.628906 203.332031 19.890625 C 217.085938 29.542969 230.851562 39.1875 244.621094 48.816406 C 246.214844 49.917969 247.699219 51.628906 250.042969 50.734375 C 251.808594 53.019531 255.378906 51.261719 257.0625 53.882812 C 257.328125 54.28125 258.292969 54.21875 258.90625 54.449219 C 263.5 56.164062 268.296875 56.441406 273.140625 56.605469 C 284.988281 57 296.84375 57.324219 308.683594 57.957031 C 319.589844 58.539062 330.492188 59.308594 341.355469 60.371094 C 344.636719 60.695312 348.027344 61.835938 349.515625 65.578125 C 351.003906 69.320312 352.828125 73.058594 354.214844 76.894531 C 354.761719 78.402344 354.535156 80.195312 354.703125 82.464844 C 357.488281 83.601562 360.90625 84.917969 364.253906 86.398438 C 365.300781 86.871094 366.167969 87.5625 366.859375 88.476562 C 367.625 89.519531 368.019531 90.832031 368.570312 92.03125 C 369.171875 93.332031 369.285156 95.007812 371.269531 95.214844 C 371.585938 95.246094 371.777344 96.0625 372.109375 96.441406 C 372.445312 96.816406 372.933594 97.484375 373.40625 97.539062 C 374.496094 97.675781 375.027344 98.144531 374.875 99.191406 C 374.710938 100.359375 374.804688 101.335938 373.820312 102.609375 C 372.125 104.808594 369.105469 105.523438 368.09375 108.28125 C 367.527344 109.824219 367.011719 111.433594 366.160156 112.820312 C 365.03125 114.671875 364.84375 116.3125 365.859375 118.304688 C 366.742188 120.039062 366.253906 120.695312 364.449219 120.746094 C 357.285156 121.019531 350.15625 121.429688 343.007812 121.453125 C 339.398438 121.453125 335.761719 120.929688 332.1875 120.320312 C 327.648438 119.550781 325.945312 117.3125 325.113281 112.734375 C 324.101562 107.164062 323.246094 101.507812 321.457031 96.179688 C 318.382812 87.027344 313.519531 78.886719 303.710938 75.65625 C 293.015625 72.132812 282.570312 72.828125 273.1875 79.746094 C 269.011719 82.824219 266.308594 87.1875 264.800781 92.035156 C 262.65625 98.941406 260.9375 105.964844 259.191406 113.003906 C 258.328125 116.484375 257.242188 119.738281 253.472656 120.917969 C 251.445312 121.5625 249.363281 121.894531 247.238281 121.914062 C 222.589844 121.980469 197.941406 121.980469 173.296875 121.914062 C 171.980469 121.914062 170.667969 121.25 169.507812 121.277344 C 167.726562 121.671875 165.949219 122.375 164.167969 122.363281 C 147.34375 122.277344 130.519531 122.078125 113.695312 121.863281 C 112.394531 121.863281 111.550781 122.148438 110.703125 123.238281 C 107.625 127.199219 103.835938 130.28125 99.335938 132.492188 L 279.890625 132.492188 C 274.152344 129.421875 269.363281 125.820312 266.257812 120.449219 C 263.152344 115.074219 261.601562 109.371094 262.582031 103.097656 C 262.765625 113.347656 266.335938 121.941406 274.816406 128.023438 C 277.9375 130.257812 281.1875 132.449219 285.402344 132.179688 C 283.648438 131.4375 281.820312 130.816406 280.164062 129.925781 C 278.628906 129.105469 277.242188 127.996094 275.785156 127.019531 C 276.207031 127.183594 276.617188 127.378906 277.011719 127.601562 C 285.371094 132.890625 294.097656 133.535156 303.214844 129.898438 C 304.183594 129.503906 305.136719 129.105469 306.097656 128.707031 L 299.484375 132.289062 L 299.484375 132.589844 C 300.621094 132.367188 301.84375 132.347656 302.878906 131.894531 C 315.429688 126.402344 321.535156 116.699219 321.542969 103.054688 C 321.554688 102.839844 321.578125 102.628906 321.613281 102.417969 C 322.804688 105.4375 322.515625 108.933594 320.855469 114.292969 C 319.601562 118.355469 317.632812 122.070312 314.621094 124.988281 C 311.734375 127.773438 308.359375 130.089844 305.183594 132.621094 L 367.53125 132.621094 C 367.53125 132.820312 367.53125 133.019531 367.53125 133.214844 L 8.371094 133.214844 L 8.371094 132.613281 L 74.710938 132.613281 C 68.15625 129.285156 63.035156 125.121094 59.949219 118.9375 C 56.914062 112.867188 55.386719 106.519531 57.285156 99.757812 C 56.464844 109.855469 59.042969 118.78125 66.582031 125.851562 C 71.195312 130.183594 76.785156 132.792969 79.882812 132.34375 C 77.613281 131.277344 75.425781 130.449219 73.449219 129.265625 C 71.207031 127.859375 69.054688 126.332031 66.984375 124.6875 C 66.453125 124.289062 66.1875 123.527344 65.789062 122.933594 C 66.136719 123.230469 66.511719 123.503906 66.832031 123.828125 C 76.746094 133.671875 91.527344 134.941406 102.957031 126.929688 C 103.851562 126.304688 104.765625 125.707031 105.675781 125.09375 C 102.488281 128.960938 97.949219 130.5 93.570312 132.382812 C 97.339844 132.636719 100.367188 130.726562 103.265625 128.800781 C 112.351562 122.800781 115.859375 113.769531 116.539062 103.285156 C 117.53125 109.550781 115.476562 115.125 112.582031 120.796875 C 113.816406 120.796875 114.722656 120.796875 115.625 120.796875 C 129.394531 120.996094 143.167969 121.1875 156.9375 121.378906 C 159.78125 121.417969 162.632812 121.515625 165.472656 121.410156 C 166.785156 121.363281 168.242188 121.113281 168.457031 119.101562 C 167.261719 119.101562 166.1875 119.042969 165.136719 119.101562 C 163.042969 119.246094 160.871094 118.511719 158.886719 120.144531 C 158.28125 120.644531 156.761719 120.144531 155.703125 119.925781 C 154.402344 119.660156 153.136719 118.882812 151.851562 118.882812 C 144.109375 118.882812 136.367188 119.089844 128.628906 119.113281 C 124.5 119.113281 121.820312 117.003906 120.667969 113.003906 C 119.949219 110.476562 119.445312 107.886719 118.726562 105.359375 C 116.734375 98.457031 114.957031 91.503906 111.164062 85.257812 C 107.070312 78.53125 97.882812 75.261719 92.289062 75.980469 L 93.019531 76.574219 C 91.648438 76.429688 90.28125 76.246094 88.90625 76.132812 C 84.40625 75.8125 80.082031 76.890625 75.796875 78.1875 Z M 199.09375 32.417969 C 195.199219 26.597656 192.609375 24.457031 188.816406 25.558594 C 192.984375 25.816406 195.339844 28.105469 197.433594 30.824219 C 197.953125 31.394531 198.515625 31.910156 199.121094 32.382812 C 200.625 34.34375 202.101562 36.332031 203.652344 38.257812 C 205.320312 40.332031 207.058594 42.351562 208.765625 44.394531 C 208.527344 43.441406 208.0625 42.613281 207.375 41.910156 C 204.625 38.738281 201.863281 35.574219 199.09375 32.414062 Z M 245.40625 107.964844 C 246.488281 102.09375 247.421875 78.433594 246.65625 72.960938 C 246.214844 69.835938 245.726562 66.667969 244.757812 63.6875 C 243.84375 60.878906 241.832031 59.097656 238.449219 59.40625 C 236.015625 59.628906 233.550781 59.40625 231.101562 59.445312 C 229.269531 59.480469 227.265625 58.871094 225.847656 60.726562 C 225.582031 60.945312 225.277344 61.046875 224.9375 61.039062 C 221.964844 61.234375 218.992188 61.433594 216.015625 61.539062 C 215.457031 61.539062 214.46875 61.175781 214.382812 60.8125 C 213.984375 59.1875 212.816406 59.476562 211.722656 59.476562 L 140.769531 59.476562 C 140.128906 59.476562 139.488281 59.535156 138.804688 59.574219 C 138.804688 61.695312 138.476562 63.730469 138.855469 65.625 C 141.289062 77.730469 145.769531 89.15625 150.757812 100.390625 C 152.9375 105.304688 156.695312 107.582031 162.207031 107.59375 C 189.367188 107.644531 216.527344 107.871094 243.6875 108.035156 C 244.269531 108.042969 244.851562 107.988281 245.40625 107.964844 Z M 335.238281 94.484375 C 335.699219 93.691406 336.109375 93.011719 336.496094 92.320312 C 339.933594 86.121094 338.65625 86.511719 346.386719 86.472656 C 349.523438 86.472656 352.65625 86.472656 355.265625 86.472656 C 353.519531 83.75 351.574219 81.042969 349.964844 78.140625 C 348.398438 75.316406 347.257812 72.257812 345.75 69.382812 C 345.332031 68.585938 344.34375 67.730469 343.5 67.589844 C 337.132812 66.519531 330.742188 65.367188 324.3125 64.71875 C 312.011719 63.472656 299.695312 62.332031 287.355469 61.535156 C 273.15625 60.628906 258.929688 60.140625 244.714844 59.484375 C 244.367188 59.484375 244.015625 59.574219 244.175781 59.554688 C 245.199219 62.339844 246.671875 65.023438 247.109375 67.847656 C 248.699219 78.261719 247.90625 88.738281 247.347656 99.195312 C 247.164062 102.605469 246.90625 106.007812 246.667969 109.675781 C 249.851562 109.675781 252.757812 109.589844 255.648438 109.714844 C 256.992188 109.773438 257.429688 109.371094 257.726562 108.070312 C 258.921875 102.933594 259.980469 97.753906 261.578125 92.742188 C 264.074219 84.898438 268.367188 78.257812 275.90625 74.25 C 280.242188 71.9375 284.96875 71.066406 289.8125 70.757812 C 302.0625 70 312.433594 73.542969 319.398438 84.261719 C 321.140625 86.945312 322.285156 90.027344 323.605469 92.96875 C 324.0625 93.992188 324.53125 94.535156 325.773438 94.492188 C 328.890625 94.417969 332.007812 94.484375 335.238281 94.484375 Z M 112.789062 81.800781 C 112.390625 80.707031 111.816406 79.632812 111.667969 78.507812 C 111.554688 77.621094 111.667969 76.3125 112.234375 75.847656 C 112.796875 75.382812 114.242188 75.449219 114.890625 75.871094 C 116.90625 77.222656 119.078125 78.589844 120.546875 80.457031 C 124.546875 85.550781 128.175781 90.9375 132.042969 96.136719 C 134.644531 99.636719 137.316406 103.085938 140.113281 106.429688 C 141.589844 108.195312 143.515625 109.179688 146.042969 108.910156 C 148.203125 108.675781 150.421875 108.910156 152.597656 108.910156 L 207.785156 108.910156 C 192.015625 108.46875 176.25 108.425781 160.480469 108.492188 C 156.101562 108.511719 152.964844 106.5 150.90625 102.867188 C 149.3125 100.042969 147.957031 97.109375 146.835938 94.0625 C 142.683594 82.890625 137.621094 71.957031 137.308594 59.570312 C 136.683594 59.511719 136.0625 59.488281 135.4375 59.496094 C 129.160156 59.871094 122.890625 60.324219 116.617188 60.644531 C 107.160156 61.121094 97.695312 61.441406 88.242188 61.953125 C 83.355469 62.214844 78.449219 62.507812 73.613281 63.191406 C 60.179688 65.117188 47.132812 68.519531 34.46875 73.398438 C 28.285156 75.757812 22.179688 78.273438 16.835938 82.265625 C 15.960938 82.917969 15.183594 83.707031 14.359375 84.433594 L 14.757812 85.035156 C 16.042969 84.84375 17.542969 85.035156 18.578125 84.402344 C 25.121094 80.515625 32.222656 78.085938 39.46875 75.996094 C 47.164062 73.777344 54.992188 72.078125 62.980469 71.585938 C 64.257812 71.503906 65.984375 72.058594 66.804688 72.957031 C 67.90625 74.152344 66.460938 75.347656 65.648438 76.328125 C 63.339844 79.144531 60.828125 81.808594 58.738281 84.773438 C 56.746094 87.5625 55.214844 90.6875 53.480469 93.664062 L 54.121094 94.183594 C 54.589844 93.785156 55.183594 93.453125 55.496094 92.953125 C 56.375 91.566406 57.136719 90.105469 57.929688 88.664062 C 61.910156 81.429688 67.515625 76.035156 75.777344 74.453125 C 81.1875 73.417969 86.789062 73.082031 92.316406 72.976562 C 100.304688 72.828125 107.363281 75.378906 112.789062 81.800781 Z M 197.167969 54.445312 C 196.988281 53.953125 196.859375 53.589844 196.722656 53.253906 C 193.539062 45.074219 190.285156 36.933594 187.195312 28.703125 C 186.582031 27.078125 185.769531 26.613281 184.140625 26.773438 C 172.707031 27.898438 161.253906 28.882812 149.828125 30.117188 C 146.246094 30.515625 142.765625 31.511719 139.082031 32.273438 C 139.5 33.351562 139.800781 34.117188 140.117188 34.945312 C 141.199219 34.753906 142.378906 34.148438 143.066406 34.507812 C 145.308594 35.65625 148.058594 36.234375 149.347656 38.71875 C 150.542969 41.042969 151.839844 43.40625 152.53125 45.90625 C 153.257812 48.605469 153.328125 51.476562 153.726562 54.464844 Z M 34.78125 65.003906 L 55.71875 53.96875 C 56.09375 54.960938 55.449219 55.59375 54.371094 56.117188 C 51.289062 57.617188 48.210938 59.128906 45.171875 60.714844 C 35.980469 65.523438 26.75 70.265625 18.390625 76.507812 C 15.4375 78.703125 12.628906 81.09375 10.890625 84.585938 C 11.9375 84.417969 13.007812 84.1875 13.722656 83.578125 C 17.652344 80.144531 22.082031 77.5625 26.800781 75.414062 C 40.140625 69.332031 54.109375 65.253906 68.421875 62.246094 C 73.964844 61.085938 79.445312 59.460938 85.042969 58.734375 C 91.257812 57.910156 97.574219 57.839844 103.84375 57.453125 C 106.902344 57.261719 109.964844 57.074219 113.023438 56.898438 C 112.53125 56.5625 111.988281 56.390625 111.390625 56.386719 C 105.777344 56.082031 100.144531 55.949219 94.550781 55.425781 C 91.53125 55.117188 88.59375 54.453125 85.734375 53.4375 C 82.949219 52.457031 82.414062 50.289062 84.226562 47.976562 C 85.339844 46.570312 86.640625 45.378906 88.136719 44.394531 C 97.15625 38.484375 107.183594 34.699219 117.316406 31.261719 C 120.574219 30.160156 123.90625 29.273438 127.207031 28.296875 C 124.597656 28.613281 122.03125 29.144531 119.507812 29.890625 C 99.019531 35.460938 79.46875 43.421875 60.542969 52.972656 C 56.746094 54.890625 56.203125 54.566406 56.003906 50.351562 C 56.003906 50.234375 55.882812 50.128906 55.84375 50.0625 C 53.5 50.011719 52.34375 51.152344 52.097656 53.476562 C 51.914062 54.238281 51.472656 54.796875 50.773438 55.15625 C 46.246094 57.269531 41.726562 59.441406 37.074219 61.25 C 35.167969 61.996094 34.480469 62.945312 34.78125 65.003906 Z M 20.253906 84.0625 L 20.519531 84.902344 C 21.890625 84.902344 23.265625 84.980469 24.632812 84.878906 C 26.15625 84.761719 27.125 85.347656 27.777344 86.714844 C 28.65625 88.558594 29.707031 90.324219 30.539062 92.1875 C 31.039062 93.316406 31.679688 93.71875 32.925781 93.710938 C 38.898438 93.660156 44.867188 93.667969 50.808594 93.777344 C 52.222656 93.800781 52.835938 93.242188 53.507812 92.09375 C 55.660156 88.386719 57.855469 84.699219 60.273438 81.175781 C 61.765625 79.015625 63.757812 77.195312 65.449219 75.160156 C 65.808594 74.722656 66.125 73.871094 65.933594 73.449219 C 65.742188 73.027344 64.910156 72.652344 64.339844 72.628906 C 63.082031 72.527344 61.828125 72.554688 60.578125 72.707031 C 52.101562 73.699219 43.808594 75.535156 35.703125 78.210938 C 30.492188 79.953125 25.40625 82.101562 20.253906 84.0625 Z M 92.457031 52.136719 C 107.105469 54.195312 121.820312 53.871094 136.734375 54.019531 C 134.15625 47.070312 131.664062 40.367188 129.132812 33.546875 C 115.9375 37.898438 103.152344 42.757812 92.457031 52.136719 Z M 154.421875 117.882812 C 154.820312 116.613281 154.820312 115.144531 156.722656 115.097656 C 158.425781 115.070312 159.878906 115.136719 160.417969 117.210938 C 160.515625 117.582031 161.550781 117.914062 162.15625 117.921875 C 180.832031 118.207031 199.511719 118.472656 218.195312 118.714844 C 229.519531 118.859375 240.847656 118.976562 252.175781 119.070312 C 255.171875 119.09375 256.222656 118.417969 257.117188 115.773438 C 257.640625 114.230469 257.914062 112.589844 258.3125 111.019531 L 257.8125 110.621094 C 257.460938 110.988281 256.867188 111.316406 256.804688 111.726562 C 256.320312 114.8125 256.351562 114.832031 253.257812 114.8125 L 150.710938 114.082031 C 142.753906 114.027344 134.8125 114.027344 126.859375 113.96875 C 122.796875 113.941406 122.667969 113.800781 121.917969 109.628906 C 121.5 109.816406 121.242188 110.132812 121.152344 110.582031 C 121.105469 114.273438 124.128906 117.71875 127.832031 117.972656 C 130.132812 118.136719 132.457031 117.910156 134.769531 117.90625 C 141.269531 117.875 147.753906 117.882812 154.421875 117.882812 Z M 189.542969 110.820312 L 189.542969 110.089844 C 178.152344 110.089844 166.761719 110.089844 155.375 110.089844 C 145.171875 110.089844 134.976562 110.027344 124.773438 110.058594 C 124.246094 110.058594 123.71875 110.65625 123.183594 110.976562 C 123.625 111.535156 123.976562 112.253906 124.542969 112.613281 C 124.980469 112.890625 125.703125 112.738281 126.292969 112.746094 C 137.417969 112.875 148.542969 113.039062 159.671875 113.113281 C 190.867188 113.296875 222.058594 113.464844 253.25 113.625 C 253.648438 113.625 254.121094 113.75 254.445312 113.578125 C 254.921875 113.304688 255.542969 112.886719 255.636719 112.429688 C 255.996094 110.835938 254.886719 110.8125 253.722656 110.8125 C 232.328125 110.824219 210.933594 110.828125 189.542969 110.820312 Z M 57.800781 52.613281 C 84.226562 38.359375 111.980469 27.800781 141.707031 22.761719 L 141.578125 22.277344 L 123.644531 25.558594 C 124.296875 24.898438 125.09375 24.234375 126.007812 24.074219 C 132.695312 22.929688 139.386719 21.765625 146.109375 20.835938 C 157.867188 19.207031 169.726562 18.84375 181.574219 19.039062 C 186.910156 19.128906 192.601562 18.453125 197.125 22.785156 C 195.84375 20.375 197.480469 18.988281 198.835938 17.480469 C 197.765625 17.269531 196.878906 17.023438 195.972656 16.921875 C 183.679688 15.617188 171.359375 15.902344 159.070312 16.695312 C 150.371094 17.257812 141.683594 18.214844 133.054688 19.332031 C 127.707031 20.019531 122.433594 21.320312 117.132812 22.410156 C 116.570312 22.527344 115.71875 23.179688 115.691406 23.605469 C 115.511719 26.621094 113.769531 27.902344 111.164062 28.898438 C 100.679688 32.878906 90.222656 36.945312 79.847656 41.199219 C 74.175781 43.523438 68.703125 46.296875 63.132812 48.855469 C 60.679688 49.980469 59.996094 49.824219 59.171875 47.984375 C 56.847656 49.257812 56.570312 50.191406 57.800781 52.613281 Z M 140.558594 108.8125 C 137.859375 105.398438 135.054688 101.929688 132.347656 98.386719 C 131.070312 96.703125 130.058594 94.804688 128.789062 93.128906 C 125.375 88.585938 121.980469 84.027344 118.371094 79.648438 C 117.289062 78.335938 115.585938 77.445312 114.039062 76.625 C 112.925781 76.03125 112.199219 76.730469 112.480469 77.960938 C 112.761719 79.25 113.1875 80.492188 113.757812 81.6875 C 117.738281 89.789062 120.433594 98.316406 122.382812 107.101562 C 122.578125 107.753906 122.816406 108.390625 123.101562 109.007812 C 123.644531 108.648438 123.976562 108.46875 124.261719 108.214844 C 127.046875 105.796875 128.675781 105.824219 131.472656 108.347656 C 131.753906 108.605469 132.082031 108.75 132.460938 108.78125 C 135.300781 108.828125 138.144531 108.8125 140.558594 108.8125 Z M 238.125 56.761719 C 238.097656 56.996094 238.066406 57.238281 238.039062 57.472656 C 240.449219 57.871094 242.855469 58.445312 245.28125 58.578125 C 250.964844 58.890625 256.671875 58.855469 262.355469 59.195312 C 278.34375 60.140625 294.335938 61.046875 310.304688 62.289062 C 318.792969 62.949219 327.234375 64.25 335.691406 65.3125 C 338.527344 65.667969 341.335938 66.175781 344.449219 66.660156 C 344.070312 65.996094 343.738281 65.308594 343.449219 64.601562 C 342.597656 61.871094 340.789062 60.96875 337.957031 60.972656 C 334.332031 60.972656 330.707031 60.386719 327.078125 60.179688 C 311.34375 59.382812 295.609375 58.585938 279.871094 57.875 C 269.355469 57.40625 258.832031 57.078125 248.304688 56.757812 C 244.890625 56.675781 241.503906 56.761719 238.125 56.761719 Z M 367.511719 106.957031 L 328.320312 106.957031 C 328.523438 108.449219 328.644531 109.429688 328.800781 110.40625 C 328.871094 110.859375 329.023438 111.300781 329.128906 111.75 C 329.738281 114.230469 330.484375 115.039062 333.066406 115.132812 C 341.789062 115.46875 350.519531 115.683594 359.246094 115.929688 C 359.632812 115.902344 360.007812 115.835938 360.382812 115.738281 C 361.121094 113.320312 362.171875 111.046875 363.542969 108.917969 C 364.574219 107.324219 365.671875 107.382812 366.785156 108.652344 C 367.078125 107.972656 367.355469 107.320312 367.511719 106.957031 Z M 13.472656 106.027344 C 14.53125 107.621094 15.703125 109.285156 16.769531 111.011719 C 17.507812 112.203125 18.5 112.664062 19.882812 112.707031 C 28.019531 112.964844 36.15625 113.339844 44.292969 113.5625 C 49.269531 113.703125 50.992188 112.03125 51.484375 106.933594 Z M 7.867188 101.980469 C 8.175781 104.367188 9.835938 104.3125 11.191406 104.390625 C 18.984375 104.828125 26.78125 105.265625 34.578125 105.523438 C 39.753906 105.699219 44.925781 105.605469 50.074219 105.558594 C 50.691406 105.558594 51.722656 105.210938 51.847656 104.804688 C 52.734375 101.96875 53.441406 99.066406 54.234375 95.992188 C 51.609375 95.992188 49.160156 96.027344 46.714844 95.992188 C 34.335938 95.773438 21.960938 95.527344 9.582031 95.34375 C 8.980469 95.34375 8.363281 95.832031 7.75 96.09375 L 7.960938 96.839844 C 10.179688 96.964844 12.40625 97.183594 14.628906 97.207031 C 23.386719 97.300781 32.109375 97.3125 40.851562 97.386719 C 43.429688 97.410156 46.023438 97.488281 48.589844 97.667969 C 50.230469 97.785156 50.746094 98.839844 50.523438 100.457031 C 50.269531 102.277344 49.125 102.582031 47.566406 102.570312 C 36.175781 102.5 24.789062 102.480469 13.402344 102.40625 C 11.632812 102.371094 9.863281 102.132812 7.867188 101.980469 Z M 244.890625 50.472656 C 235.703125 44.019531 226.585938 37.597656 217.429688 31.191406 C 212.398438 27.660156 207.378906 24.117188 202.304688 20.683594 C 201.707031 20.285156 200.6875 20.503906 199.863281 20.441406 C 200.050781 21.238281 200.011719 22.214844 200.476562 22.800781 C 201.324219 23.820312 202.296875 24.710938 203.382812 25.46875 C 214.488281 33.550781 225.714844 41.46875 236.660156 49.746094 C 239.535156 51.941406 241.90625 52.039062 244.890625 50.472656 Z M 324.652344 96.738281 C 325.246094 99.355469 325.898438 101.824219 326.335938 104.332031 C 326.5625 105.640625 327.078125 106.054688 328.394531 106.046875 C 338.792969 105.996094 349.199219 106.109375 359.59375 105.957031 C 363.007812 105.910156 366.421875 105.308594 369.8125 104.789062 C 370.527344 104.683594 371.128906 103.851562 371.78125 103.347656 C 371.65625 103.179688 371.535156 103.003906 371.414062 102.828125 C 368.839844 102.964844 366.265625 103.226562 363.6875 103.226562 C 352.757812 103.15625 341.832031 102.945312 330.902344 102.921875 C 329.019531 102.921875 327.792969 101.828125 327.683594 100.421875 C 327.570312 98.894531 328.976562 97.777344 330.960938 97.726562 C 331.886719 97.703125 332.816406 97.726562 333.746094 97.75 C 342.292969 97.828125 350.839844 97.925781 359.386719 97.988281 C 363.207031 98.019531 367.027344 97.988281 370.847656 97.988281 L 371.09375 96.953125 C 370.589844 96.6875 370.082031 96.15625 369.582031 96.179688 C 364.6875 96.320312 359.796875 96.671875 354.902344 96.714844 C 344.894531 96.800781 334.898438 96.738281 324.640625 96.738281 Z M 238.710938 52.519531 L 206.496094 29.039062 C 207.515625 30.566406 208.75 31.855469 209.882812 33.226562 C 214.3125 38.570312 218.726562 43.933594 223.125 49.308594 C 226.089844 52.933594 229.84375 54.242188 234.414062 53.289062 C 235.703125 53.042969 237.003906 52.832031 238.710938 52.519531 Z M 363.589844 94.425781 C 362.648438 92.386719 361.90625 90.648438 361.035156 88.976562 C 360.71875 88.507812 360.28125 88.242188 359.71875 88.179688 C 353.566406 88.113281 347.417969 88.097656 341.269531 88.132812 C 340.617188 88.160156 340.089844 88.425781 339.675781 88.929688 C 338.613281 90.648438 337.714844 92.46875 336.652344 94.4375 Z M 185.8125 25.464844 C 183.824219 22.792969 146.136719 26.007812 133.324219 29.84375 L 141.136719 51.09375 L 141.714844 50.933594 C 140.789062 47.171875 139.851562 43.417969 138.960938 39.648438 C 138.765625 38.828125 138.363281 37.742188 138.707031 37.175781 C 139.578125 35.757812 139.140625 34.554688 138.578125 33.328125 C 137.980469 32.03125 138.210938 31.390625 139.703125 31.160156 C 148.886719 29.730469 158.039062 28.074219 167.253906 26.871094 C 173.34375 26.089844 179.511719 25.921875 185.8125 25.464844 Z M 128.035156 30.90625 C 125.464844 31.675781 122.9375 32.40625 120.429688 33.195312 C 110.5625 36.316406 100.816406 39.757812 91.914062 45.167969 C 89.773438 46.464844 87.875 48.171875 85.796875 49.742188 C 88.03125 51.851562 90.519531 52.492188 91.609375 51.414062 C 95.988281 47.070312 101.199219 43.886719 106.757812 41.398438 C 113.425781 38.410156 120.289062 35.867188 127.078125 33.132812 C 128.035156 32.75 129.375 32.59375 128.035156 30.90625 Z M 364.027344 116.378906 C 362.832031 116.542969 361.902344 116.777344 360.988281 116.777344 C 352.464844 116.6875 343.9375 116.691406 335.417969 116.378906 C 329.128906 116.152344 328.316406 115.1875 327.535156 108.910156 C 327.535156 108.777344 327.535156 108.644531 327.535156 108.511719 C 327.511719 107.160156 326.738281 107.042969 325.542969 107.421875 C 325.773438 109.070312 325.941406 110.703125 326.246094 112.308594 C 327.277344 117.621094 328.4375 119.035156 333.804688 119.515625 C 340.113281 120.085938 346.472656 120.21875 352.808594 120.261719 C 356.929688 120.289062 361.054688 119.824219 365.394531 119.566406 C 364.859375 118.308594 364.449219 117.367188 364.027344 116.378906 Z M 190.867188 28.753906 L 190.40625 29.152344 C 193.5625 37.222656 196.734375 45.292969 199.917969 53.363281 C 200.121094 53.84375 200.472656 54.152344 200.972656 54.292969 C 202.316406 54.402344 203.679688 54.335938 205.066406 54.335938 C 205.066406 53.320312 204.832031 52.4375 205.105469 51.75 C 206.910156 47.171875 204.011719 44.347656 201.433594 41.339844 C 197.871094 37.179688 194.386719 32.949219 190.867188 28.753906 Z M 373.96875 101.355469 C 373.757812 100.058594 374.863281 98.570312 372.5625 98.660156 C 365.957031 98.871094 359.347656 99.109375 352.734375 99.140625 C 345.523438 99.179688 338.3125 98.953125 331.101562 98.96875 C 330.328125 98.96875 328.972656 99.761719 328.90625 100.304688 C 328.769531 101.539062 329.945312 101.6875 331.019531 101.699219 C 341.738281 101.792969 352.453125 101.976562 363.171875 101.992188 C 366.714844 101.996094 370.265625 101.585938 373.96875 101.355469 Z M 29.625 92.910156 C 28.589844 90.917969 27.550781 88.800781 26.382812 86.769531 C 26.164062 86.371094 25.429688 86.132812 24.917969 86.113281 C 20.828125 85.953125 16.738281 85.855469 12.648438 85.761719 C 12.023438 85.761719 11.398438 85.820312 10.679688 85.859375 C 10.679688 87.945312 10.609375 89.792969 10.730469 91.632812 C 10.757812 92.078125 11.398438 92.851562 11.765625 92.855469 C 17.671875 92.933594 23.601562 92.910156 29.625 92.910156 Z M 6.417969 98.234375 C 5.742188 100.097656 6.101562 100.722656 8.195312 100.835938 C 11.378906 100.996094 14.5625 101.1875 17.71875 101.230469 C 26.988281 101.320312 36.261719 101.339844 45.53125 101.375 C 46.464844 101.4375 47.394531 101.386719 48.316406 101.230469 C 48.808594 101.117188 49.175781 100.496094 49.601562 100.101562 C 49.207031 99.683594 48.851562 99.078125 48.355469 98.886719 C 47.648438 98.683594 46.929688 98.605469 46.195312 98.652344 C 32.953125 98.5 19.695312 98.363281 6.417969 98.234375 Z M 138.957031 57.859375 L 139.292969 58.398438 C 162.148438 58.398438 185.007812 58.390625 207.871094 58.375 C 210.53125 58.375 213.351562 59.058594 216.289062 56.722656 C 190.816406 56.722656 165.914062 56.722656 140.996094 56.769531 C 140.300781 56.769531 139.621094 57.480469 138.941406 57.859375 Z M 251.003906 120.386719 L 250.921875 120.140625 L 170.003906 119.175781 C 170.820312 120.972656 172.25 120.855469 173.484375 120.859375 C 197.246094 120.953125 221.007812 121.019531 244.773438 121.050781 C 246.851562 121.050781 248.929688 120.617188 251.003906 120.386719 Z M 138.394531 57.75 L 138.234375 57.023438 C 137.269531 56.960938 136.292969 56.820312 135.328125 56.851562 C 130.371094 57.019531 125.40625 57.160156 120.457031 57.445312 C 109.3125 58.078125 98.132812 58.6875 86.984375 59.515625 C 83.269531 59.792969 79.605469 60.710938 75.917969 61.320312 L 76.003906 61.839844 C 78.496094 61.597656 80.976562 61.257812 83.476562 61.121094 C 96.746094 60.398438 110.023438 59.707031 123.316406 59.046875 C 127.695312 58.824219 132.046875 58.675781 136.402344 58.425781 C 137.082031 58.386719 137.734375 57.984375 138.394531 57.75 Z M 13.652344 108.683594 C 13.136719 106.601562 11.960938 105.523438 9.886719 105.25 C 8.09375 105.011719 5.257812 101.519531 5.027344 99.734375 C 4.820312 98.171875 5.960938 97.472656 6.578125 96.367188 C 7.4375 94.828125 8.226562 93.898438 9.8125 93.925781 C 9.644531 91.828125 9.488281 89.871094 9.335938 87.953125 C 5.433594 87.367188 5.433594 87.367188 4.234375 90.867188 C 3.789062 92.175781 3.460938 93.546875 2.871094 94.785156 C 1.355469 97.96875 1.589844 100.683594 3.703125 103.730469 C 7.285156 108.832031 7.039062 109.007812 13.253906 108.773438 C 13.386719 108.753906 13.519531 108.722656 13.652344 108.683594 Z M 258.695312 109.636719 C 258.835938 109.238281 259.007812 108.882812 259.09375 108.488281 C 260.425781 103.402344 261.507812 98.234375 263.140625 93.246094 C 265.578125 85.808594 269.703125 79.5 276.996094 75.921875 C 284.058594 72.460938 291.59375 71.824219 299.238281 73.136719 C 305.898438 74.273438 311.671875 77.308594 315.648438 82.929688 C 317.882812 86.078125 319.566406 89.621094 321.515625 92.972656 C 321.871094 93.523438 322.25 94.054688 322.660156 94.566406 L 323.054688 94.230469 C 322.660156 93.195312 322.292969 92.144531 321.863281 91.125 C 318.238281 82.589844 312.679688 76.003906 303.5 73.179688 C 297.824219 71.433594 292.035156 71.453125 286.207031 72.1875 C 277.320312 73.304688 270.398438 77.453125 265.839844 85.292969 C 261.511719 92.800781 260.160156 101.230469 258.707031 109.636719 Z M 55.902344 93.691406 L 56.59375 94.121094 C 57.425781 92.6875 58.28125 91.265625 59.078125 89.8125 C 62.804688 83.046875 67.9375 78.097656 75.628906 76.074219 C 82.046875 74.445312 88.550781 74 95.132812 74.738281 C 104.683594 75.699219 111.46875 80.832031 114.847656 89.898438 C 116.960938 95.574219 118.5625 101.4375 120.394531 107.214844 C 120.574219 107.769531 120.792969 108.320312 121.140625 109.285156 C 121.402344 108.605469 121.539062 108.425781 121.519531 108.28125 C 119.757812 100.347656 117.78125 92.484375 113.761719 85.320312 C 110.753906 79.960938 106.128906 76.648438 100.3125 74.992188 C 94.5 73.335938 88.515625 73.703125 82.570312 74.226562 C 74.464844 74.941406 67.117188 77.285156 62.121094 84.277344 C 59.925781 87.332031 57.964844 90.546875 55.902344 93.691406 Z M 146.625 54.25 C 146.539062 47.964844 144.910156 42.175781 142.367188 36.621094 C 142.226562 36.320312 141.089844 36.097656 140.824219 36.324219 C 140.28125 36.792969 139.578125 37.675781 139.695312 38.21875 C 140.867188 43.546875 142.191406 48.839844 143.5 54.25 Z M 214.644531 54.675781 C 215.898438 54.675781 217.15625 54.675781 218.410156 54.675781 C 219.96875 54.703125 220.527344 53.6875 220.105469 52.488281 C 219.703125 51.441406 219.011719 50.648438 218.03125 50.105469 C 216.648438 49.398438 215.042969 49.144531 213.542969 48.667969 C 210.121094 47.585938 209.511719 48.007812 209.390625 51.570312 C 209.285156 54.503906 209.441406 54.65625 212.445312 54.664062 Z M 206.953125 46.179688 L 208.402344 45.082031 C 207.144531 43.605469 206.015625 42.296875 204.917969 40.996094 C 201.578125 37.070312 198.339844 33.039062 194.855469 29.261719 C 193.660156 27.957031 191.828125 27.230469 190.285156 26.238281 L 190.058594 26.671875 Z M 149.597656 54.253906 C 150.609375 47.460938 147.320312 37.757812 143.257812 36.132812 C 145.847656 41.980469 147.589844 47.871094 147.5625 54.253906 Z M 255.6875 53.617188 C 254.011719 53.386719 252.105469 52.542969 251.351562 53.140625 C 249.550781 54.542969 248.710938 53.777344 247.839844 52.597656 L 235.738281 55.808594 C 236.003906 55.808594 236.445312 55.863281 236.890625 55.863281 C 241.566406 55.863281 246.242188 55.703125 250.910156 55.863281 C 252.929688 55.929688 254.152344 54.960938 255.6875 53.617188 Z M 344.640625 62.117188 L 344.113281 62.644531 C 345.535156 64.710938 347.035156 66.734375 348.347656 68.867188 C 349.007812 69.941406 349.359375 71.210938 349.800781 72.410156 C 350.835938 75.195312 351.84375 78.011719 352.859375 80.816406 L 353.511719 80.652344 C 353.585938 80.230469 353.816406 79.769531 353.722656 79.390625 C 352.246094 73.675781 350.078125 68.246094 346.558594 63.46875 C 346.105469 62.882812 345.285156 62.566406 344.640625 62.117188 Z M 16.410156 112.910156 L 16.648438 112.378906 C 15.824219 111.585938 15.082031 110.277344 14.160156 110.140625 C 12.121094 109.910156 10.089844 109.964844 8.066406 110.308594 C 7.667969 110.367188 7.1875 111.707031 7.203125 112.449219 C 7.203125 112.972656 8.03125 113.957031 8.425781 113.925781 C 11.097656 113.707031 13.75 113.273438 16.410156 112.910156 Z M 222.945312 58.296875 C 220.730469 58.398438 218.566406 58.453125 216.425781 58.640625 C 215.941406 58.683594 215.5 59.1875 215.039062 59.480469 C 215.546875 59.792969 216.070312 60.390625 216.566406 60.371094 C 219.140625 60.292969 221.707031 60.054688 224.28125 59.867188 C 225.84375 59.753906 226.269531 59.070312 225.265625 57.902344 C 224.023438 56.429688 222.507812 55.1875 221.066406 53.804688 C 218.832031 56.742188 222.675781 56.699219 222.945312 58.296875 Z M 202.277344 28.273438 C 203.375 31.457031 218.671875 49.230469 221.046875 50.386719 Z M 147.550781 38.679688 C 147.898438 39.453125 148.238281 40.226562 148.589844 40.992188 C 150.351562 44.804688 150.71875 48.867188 150.835938 52.988281 C 150.835938 53.515625 151.355469 54.03125 151.632812 54.550781 L 152.230469 54.253906 C 152.320312 48.5625 151.675781 43.078125 147.550781 38.679688 Z M 208.898438 55.398438 C 207.65625 52.476562 208.203125 49.855469 209.519531 47.277344 C 207.554688 47.175781 206.507812 48.335938 206.277344 50.675781 C 205.964844 53.839844 206.5625 55.011719 208.898438 55.410156 Z M 159.582031 118.328125 C 159.582031 118.039062 159.582031 117.753906 159.613281 117.464844 C 158.886719 117.007812 158.148438 116.179688 157.433594 116.199219 C 156.867188 116.222656 155.882812 117.292969 155.90625 117.863281 C 155.929688 118.4375 156.90625 119.351562 157.558594 119.457031 C 158.210938 119.558594 158.921875 118.734375 159.582031 118.328125 Z M 365.976562 109.621094 L 365.390625 109.296875 C 363.207031 110.410156 361.878906 113 362.929688 115.320312 C 363.949219 113.425781 364.964844 111.523438 365.976562 109.621094 Z M 228.804688 56.253906 L 221.480469 51.394531 C 223.066406 54.796875 225.84375 56.550781 228.804688 56.253906 Z M 364.175781 91.816406 C 364.675781 94.316406 365.09375 94.457031 367.917969 93.246094 C 367.414062 90.910156 365.671875 91.933594 364.175781 91.816406 Z M 362.304688 88.414062 C 363.417969 90.878906 363.804688 90.984375 366.5625 89.703125 C 365.679688 87.628906 363.894531 88.882812 362.304688 88.414062 Z M 55.871094 96.230469 L 55.320312 96.078125 C 54.484375 99.15625 53.644531 102.230469 52.804688 105.308594 L 53.402344 105.476562 C 54.230469 102.390625 55.054688 99.308594 55.871094 96.230469 Z M 325.101562 105.871094 L 325.8125 105.695312 L 323.578125 96.910156 L 323.042969 97.046875 C 323.730469 99.980469 324.414062 102.921875 325.101562 105.871094 Z M 354.832031 83.632812 C 356.824219 85.847656 358.664062 87.273438 361.679688 86.492188 Z M 130.265625 108.777344 C 128.710938 107.1875 127.125 107.207031 125.492188 108.777344 Z M 260.578125 56.304688 C 258.945312 55.703125 257.371094 54.4375 255.574219 56.015625 Z M 235.980469 58.019531 C 236.023438 58.050781 235.980469 58.019531 235.980469 58.019531 L 226.746094 58.019531 Z M 235.980469 58.019531 " fill-opacity="1" fill-rule="nonzero"/><path fill="#ffffff" d="M 314.382812 121.585938 C 315.714844 118.957031 317.289062 116.410156 318.328125 113.667969 C 320.519531 107.855469 320.46875 101.898438 318.757812 95.9375 C 318.578125 95.316406 318.5 94.664062 318.359375 94.023438 C 320.472656 98.238281 320.6875 102.78125 320.277344 107.3125 C 320.085938 109.660156 319.585938 111.941406 318.785156 114.152344 C 317.984375 116.367188 316.90625 118.4375 315.554688 120.363281 C 315.195312 120.800781 314.804688 121.207031 314.382812 121.585938 Z M 314.382812 121.585938 " fill-opacity="1" fill-rule="nonzero"/><path fill="#ffffff" d="M 60.347656 94.257812 C 59.953125 96.511719 59.433594 98.753906 59.15625 101.023438 C 58.359375 107.6875 59.953125 113.847656 63.339844 119.578125 C 63.070312 119.425781 62.695312 119.332031 62.542969 119.097656 C 58.046875 111.160156 57.035156 102.898438 60.347656 94.257812 Z M 60.347656 94.257812 " fill-opacity="1" fill-rule="nonzero"/><path fill="#ffffff" d="M 265.519531 96.246094 C 265.199219 99.511719 264.609375 102.777344 264.617188 106.039062 C 264.617188 111.472656 266.792969 116.277344 269.707031 120.765625 C 269.4375 120.625 269.058594 120.558594 268.910156 120.339844 C 263.996094 112.851562 262.5 104.867188 265.519531 96.246094 Z M 265.519531 96.246094 " fill-opacity="1" fill-rule="nonzero"/><path fill="#ffffff" d="M 305.714844 79.378906 C 300.714844 76.847656 295.433594 75.546875 289.847656 76.195312 C 287.261719 76.503906 284.742188 77.363281 282.1875 77.972656 C 283.761719 77.3125 285.277344 76.378906 286.914062 76.035156 C 293.253906 74.683594 299.3125 75.699219 305.039062 78.703125 C 305.296875 78.894531 305.523438 79.121094 305.714844 79.378906 Z M 305.714844 79.378906 " fill-opacity="1" fill-rule="nonzero"/><path fill="#ffffff" d="M 74.351562 78.945312 L 65.492188 85.945312 C 66.6875 84.597656 67.75 83.054688 69.148438 81.964844 C 70.71875 80.75 72.605469 79.929688 74.351562 78.945312 Z M 74.351562 78.945312 " fill-opacity="1" fill-rule="nonzero"/><path fill="#ffffff" d="M 306.027344 128.742188 L 314.445312 121.515625 C 312.480469 124.90625 309.558594 127.183594 306.027344 128.742188 Z M 306.027344 128.742188 " fill-opacity="1" fill-rule="nonzero"/><path fill="#ffffff" d="M 86.949219 126.339844 C 86.222656 126.34375 85.496094 126.316406 84.773438 126.25 C 84.046875 126.1875 83.328125 126.085938 82.617188 125.949219 C 81.902344 125.8125 81.195312 125.640625 80.5 125.4375 C 79.800781 125.230469 79.117188 124.992188 78.441406 124.71875 C 77.769531 124.445312 77.113281 124.136719 76.46875 123.800781 C 75.824219 123.460938 75.199219 123.089844 74.59375 122.691406 C 73.988281 122.289062 73.402344 121.859375 72.839844 121.402344 C 72.273438 120.941406 71.734375 120.457031 71.21875 119.945312 C 70.703125 119.433594 70.214844 118.898438 69.75 118.339844 C 69.285156 117.777344 68.851562 117.195312 68.449219 116.59375 C 68.042969 115.988281 67.667969 115.367188 67.324219 114.726562 C 66.980469 114.085938 66.667969 113.429688 66.390625 112.761719 C 66.109375 112.089844 65.863281 111.40625 65.652344 110.710938 C 65.441406 110.015625 65.265625 109.3125 65.125 108.597656 C 64.980469 107.886719 64.875 107.167969 64.804688 106.445312 C 64.734375 105.71875 64.699219 104.996094 64.699219 104.269531 C 64.699219 91.980469 74.753906 81.75 86.859375 81.75 C 98.800781 81.75 108.808594 92.027344 108.835938 104.300781 C 108.835938 105.019531 108.800781 105.738281 108.734375 106.453125 C 108.664062 107.167969 108.558594 107.878906 108.421875 108.585938 C 108.285156 109.289062 108.109375 109.988281 107.902344 110.675781 C 107.695312 111.363281 107.457031 112.039062 107.183594 112.707031 C 106.910156 113.371094 106.605469 114.019531 106.265625 114.65625 C 105.929688 115.292969 105.5625 115.910156 105.164062 116.507812 C 104.769531 117.105469 104.34375 117.683594 103.886719 118.242188 C 103.433594 118.800781 102.953125 119.332031 102.445312 119.84375 C 101.9375 120.351562 101.410156 120.835938 100.855469 121.296875 C 100.300781 121.753906 99.726562 122.183594 99.128906 122.585938 C 98.53125 122.988281 97.917969 123.359375 97.285156 123.699219 C 96.652344 124.042969 96.003906 124.351562 95.34375 124.628906 C 94.679688 124.90625 94.003906 125.152344 93.316406 125.363281 C 92.628906 125.574219 91.933594 125.753906 91.230469 125.894531 C 90.523438 126.039062 89.816406 126.148438 89.097656 126.222656 C 88.382812 126.296875 87.667969 126.335938 86.949219 126.339844 Z M 86.882812 82.921875 C 75.402344 82.886719 65.878906 92.539062 65.824219 104.265625 C 65.773438 115.570312 75.140625 124.984375 86.351562 125.171875 C 96.75 125.347656 107.5625 117.210938 107.625 104.875 C 107.6875 92.535156 98.589844 82.957031 86.882812 82.921875 Z M 86.882812 82.921875 " fill-opacity="1" fill-rule="nonzero"/><path fill="#ffffff" d="M 114.40625 99.035156 C 115.894531 102.714844 115.066406 106.402344 114.40625 110.085938 C 113.460938 115.5 110.945312 120.105469 107.175781 124.050781 C 106.695312 124.472656 106.179688 124.84375 105.625 125.164062 C 107.078125 123.324219 108.648438 121.582031 109.964844 119.632812 C 113.414062 114.566406 114.742188 108.886719 114.523438 102.789062 C 114.488281 101.539062 114.449219 100.285156 114.40625 99.035156 Z M 114.40625 99.035156 " fill-opacity="1" fill-rule="nonzero"/><path fill="#ffffff" d="M 292.253906 126.339844 C 279.917969 126.316406 270.261719 116.519531 270.289062 104.050781 C 270.3125 91.945312 280.363281 81.714844 292.210938 81.726562 C 304.433594 81.726562 314.378906 92.050781 314.363281 104.703125 C 314.335938 116.570312 304.300781 126.363281 292.253906 126.339844 Z M 271.417969 104.3125 C 271.386719 115.875 280.664062 125.113281 292.355469 125.144531 C 303.597656 125.179688 313.152344 115.832031 313.207031 104.742188 C 313.257812 92.859375 303.914062 83.164062 292.59375 82.890625 C 280.570312 82.601562 271.183594 93.523438 271.417969 104.3125 Z M 271.417969 104.3125 " fill-opacity="1" fill-rule="nonzero"/><path fill="#ffffff" d="M 145.335938 69.433594 C 143.792969 70.628906 142.015625 70.988281 140.890625 69.472656 C 140.246094 68.605469 140.21875 66.710938 140.722656 65.675781 C 141.839844 63.375 143.832031 64.480469 145.5 65.125 C 148.476562 61.960938 151.933594 61.722656 155.050781 64.636719 C 156.019531 65.539062 156.914062 65.988281 158.167969 65.871094 C 159.507812 65.746094 159.839844 66.476562 159.839844 67.6875 C 159.839844 68.898438 159.113281 68.882812 158.1875 69.078125 C 156.925781 69.273438 155.757812 69.71875 154.6875 70.414062 C 154.34375 70.675781 153.976562 70.902344 153.589844 71.09375 C 153.203125 71.289062 152.800781 71.441406 152.382812 71.558594 C 151.964844 71.675781 151.542969 71.75 151.109375 71.789062 C 150.679688 71.824219 150.25 71.820312 149.816406 71.773438 C 149.386719 71.730469 148.964844 71.644531 148.550781 71.519531 C 148.136719 71.394531 147.738281 71.234375 147.355469 71.03125 C 146.96875 70.832031 146.609375 70.597656 146.269531 70.328125 C 145.929688 70.0625 145.617188 69.761719 145.335938 69.433594 Z M 146.589844 68.699219 C 148.480469 71.390625 152.488281 71.234375 154.585938 68.699219 Z M 146.816406 65.199219 L 147.113281 65.898438 L 154.417969 65.898438 C 153.582031 64.273438 151.539062 63.417969 148.9375 63.90625 C 148.175781 64.035156 147.519531 64.75 146.816406 65.199219 Z M 146.816406 65.199219 " fill-opacity="1" fill-rule="nonzero"/><path fill="#ffffff" d="M 257.429688 66.132812 C 258.71875 66.03125 260.214844 66.132812 260.246094 68.320312 C 260.273438 69.914062 259.390625 70.566406 257.246094 70.558594 C 254.859375 70.558594 254.195312 70.054688 254.195312 68.230469 C 254.195312 66.402344 254.605469 66.113281 257.429688 66.132812 Z M 257.078125 70.078125 L 259.136719 68.3125 C 258.511719 67.914062 257.890625 67.253906 257.257812 67.242188 C 256.625 67.230469 255.96875 67.871094 255.324219 68.226562 Z M 257.078125 70.078125 " fill-opacity="1" fill-rule="nonzero"/><path fill="#ffffff" d="M 67.121094 104.292969 C 67.203125 93.238281 76.410156 83.878906 87.320312 84.183594 C 97.671875 84.476562 106.1875 92.964844 106.273438 104.167969 C 106.28125 104.816406 106.253906 105.464844 106.199219 106.113281 C 106.140625 106.757812 106.046875 107.398438 105.925781 108.039062 C 105.804688 108.675781 105.648438 109.304688 105.464844 109.925781 C 105.277344 110.546875 105.0625 111.160156 104.816406 111.757812 C 104.570312 112.359375 104.292969 112.945312 103.988281 113.519531 C 103.683594 114.089844 103.351562 114.648438 102.988281 115.1875 C 102.628906 115.726562 102.242188 116.246094 101.828125 116.746094 C 101.414062 117.246094 100.976562 117.726562 100.515625 118.183594 C 100.054688 118.640625 99.574219 119.070312 99.070312 119.480469 C 98.566406 119.890625 98.042969 120.273438 97.5 120.628906 C 96.957031 120.984375 96.398438 121.3125 95.824219 121.613281 C 95.25 121.914062 94.660156 122.183594 94.058594 122.425781 C 93.453125 122.667969 92.839844 122.878906 92.21875 123.058594 C 91.59375 123.238281 90.964844 123.386719 90.324219 123.503906 C 89.6875 123.621094 89.042969 123.707031 88.398438 123.757812 C 87.75 123.8125 87.101562 123.832031 86.453125 123.820312 C 75.792969 123.671875 67.035156 114.835938 67.121094 104.292969 Z M 104.960938 104.273438 C 105.15625 94.28125 96.863281 85.375 86.984375 85.4375 C 77.296875 85.503906 68.511719 93.308594 68.492188 104.515625 C 68.492188 114.066406 76.140625 121.871094 85.519531 122.425781 C 96.128906 123.050781 105.253906 114.433594 104.960938 104.273438 Z M 104.960938 104.273438 " fill-opacity="1" fill-rule="nonzero"/><path fill="#ffffff" d="M 292.546875 84.132812 C 302.941406 84.132812 311.816406 93.5 311.847656 104.5 C 311.875 114.894531 302.78125 123.976562 292.285156 123.90625 C 281.792969 123.835938 272.910156 115.710938 272.710938 104.632812 C 272.511719 93.394531 281.628906 84.132812 292.546875 84.132812 Z M 310.535156 104.253906 C 310.300781 93.027344 301.953125 85.601562 292.226562 85.449219 C 282.246094 85.296875 273.710938 94.570312 273.917969 104.804688 C 274.113281 114.667969 282.742188 122.816406 292.753906 122.589844 C 302.566406 122.367188 310.675781 114.015625 310.535156 104.253906 Z M 310.535156 104.253906 " fill-opacity="1" fill-rule="nonzero"/><path fill="#ffffff" d="M 86.621094 86.476562 C 96.636719 86.734375 103.789062 94.296875 104.058594 103.59375 C 104.339844 113.320312 96.464844 121.527344 87.257812 121.554688 C 77.335938 121.582031 69.464844 114.167969 69.402344 104.738281 C 69.339844 94.738281 77.097656 86.511719 86.621094 86.476562 Z M 103.339844 104.144531 C 103.242188 94.867188 96.589844 87.640625 86.453125 87.386719 C 77.699219 87.167969 70.101562 95.34375 70.136719 104.425781 C 70.171875 113.871094 77.785156 120.460938 86.90625 120.695312 C 95.859375 120.925781 103.34375 113.195312 103.324219 104.144531 Z M 103.339844 104.144531 " fill-opacity="1" fill-rule="nonzero"/><path fill="#ffffff" d="M 292.054688 86.460938 C 300.917969 86.539062 309.734375 93.4375 309.566406 104.796875 C 309.46875 113.808594 301.59375 121.746094 292.652344 121.546875 C 281.875 121.320312 275.328125 114.632812 274.996094 104.246094 C 274.742188 95.875 282.441406 86.09375 292.054688 86.460938 Z M 275.792969 104.035156 C 275.558594 113.269531 282.558594 120.507812 291.945312 120.75 C 300.699219 120.964844 308.566406 113.734375 308.738281 105.226562 C 308.980469 93.6875 301.070312 87.871094 292.378906 87.316406 C 283.472656 86.753906 275.378906 96.058594 275.792969 104.035156 Z M 275.792969 104.035156 " fill-opacity="1" fill-rule="nonzero"/><path fill="#ffffff" d="M 82.230469 97.617188 C 81.289062 95.964844 80.359375 94.304688 79.394531 92.664062 C 78.691406 91.46875 79.046875 90.5 80.191406 90.082031 C 82.015625 89.359375 83.902344 88.84375 85.84375 88.539062 C 87.949219 88.277344 88.542969 89.003906 88.519531 91.191406 C 88.46875 92.046875 88.34375 92.894531 88.148438 93.730469 C 88.007812 94.558594 87.820312 95.375 87.753906 95.71875 L 90.882812 97.890625 C 90.488281 97.699219 90.023438 97.304688 89.65625 97.367188 C 88.929688 97.550781 88.230469 97.808594 87.558594 98.140625 C 87.824219 98.769531 87.917969 99.605469 88.390625 99.996094 C 89.503906 100.917969 90.207031 100.328125 90.660156 98.203125 C 91.785156 97.171875 93.050781 96.257812 94.007812 95.085938 C 96.699219 91.796875 97.265625 91.855469 99.394531 95.105469 C 100.160156 96.234375 100.800781 97.425781 101.316406 98.6875 C 102.0625 100.636719 101.40625 101.648438 99.324219 102.027344 C 97.785156 102.304688 96.230469 102.503906 94.617188 102.75 C 95.046875 104.125 96.046875 105.4375 94.0625 106.289062 C 94.207031 105.820312 94.5625 105.296875 94.460938 104.902344 C 94.296875 104.296875 93.871094 103.398438 93.4375 103.308594 C 93.089844 103.300781 92.765625 103.375 92.457031 103.53125 C 92.152344 103.6875 91.898438 103.90625 91.699219 104.183594 C 91.484375 104.582031 91.835938 105.683594 92.25 105.925781 C 93.832031 106.847656 95.480469 107.644531 97.183594 108.3125 C 101.445312 109.980469 101.640625 110.566406 98.890625 114.210938 C 98.789062 114.378906 98.671875 114.539062 98.542969 114.691406 C 94.523438 118.507812 93.441406 118.386719 91.511719 113.804688 C 90.953125 112.476562 90.152344 111.246094 89.554688 109.929688 C 89.066406 108.859375 88.292969 108.203125 87.285156 108.914062 C 86.726562 109.3125 86.195312 110.503906 86.390625 111.066406 C 86.808594 112.296875 87.917969 111.996094 88.882812 111.503906 C 89.085938 111.402344 89.308594 111.324219 89.523438 111.238281 L 89.742188 111.894531 L 86.136719 113.0625 C 86.066406 113.878906 85.941406 115.300781 85.804688 116.722656 C 85.605469 118.824219 84.613281 119.589844 82.621094 119.03125 C 81.480469 118.695312 80.382812 118.253906 79.332031 117.699219 C 76.289062 116.144531 76.144531 115.273438 78.515625 112.75 C 79.460938 111.746094 80.554688 110.878906 81.398438 110.117188 L 78.097656 106.699219 C 77.050781 107.003906 75.605469 107.394531 74.171875 107.828125 C 72.546875 108.324219 71.4375 107.761719 71.40625 106.078125 C 71.304688 103.992188 71.464844 101.921875 71.882812 99.875 C 72.371094 97.808594 73.527344 97.511719 75.464844 98.375 C 76.777344 98.960938 78.117188 99.488281 79.445312 100.042969 C 80.609375 100.882812 81.871094 102.558594 83.257812 101.261719 C 84.578125 100.03125 83.035156 98.734375 82.230469 97.617188 Z M 82.972656 104.34375 C 82.4375 103.636719 82.121094 102.828125 81.535156 102.507812 C 79.402344 101.347656 77.15625 100.414062 75.007812 99.265625 C 73.492188 98.46875 72.683594 99.097656 72.382812 100.460938 C 72.070312 101.882812 71.917969 103.320312 71.929688 104.777344 C 71.929688 106.742188 72.6875 107.191406 74.59375 106.660156 C 77.183594 105.9375 79.777344 105.226562 82.972656 104.34375 Z M 90.246094 106.449219 C 90.089844 106.910156 89.558594 107.644531 89.742188 108.042969 C 90.9375 110.59375 92.246094 113.085938 93.582031 115.5625 C 94.144531 116.605469 95.070312 116.671875 95.894531 115.914062 C 96.988281 114.957031 97.984375 113.914062 98.886719 112.777344 C 100.285156 110.925781 100.171875 110.625 97.992188 109.671875 C 95.546875 108.609375 93.058594 107.613281 90.246094 106.449219 Z M 91.09375 102.800781 C 92.183594 102.476562 93.085938 102.144531 94.046875 101.945312 C 95.847656 101.566406 97.695312 101.382812 99.445312 100.867188 C 100.019531 100.695312 100.871094 99.566406 100.734375 99.183594 C 99.988281 97.03125 99.03125 94.9375 96.632812 93.425781 L 90.117188 101.410156 Z M 85.359375 100.414062 C 85.785156 99.824219 86.421875 99.320312 86.554688 98.71875 C 87.015625 96.207031 87.351562 93.664062 87.671875 91.125 C 87.835938 89.820312 87.238281 89.027344 85.847656 89.320312 C 84.390625 89.625 82.960938 90.082031 81.523438 90.515625 C 79.953125 90.976562 79.816406 91.871094 80.679688 93.167969 C 82.175781 95.453125 83.640625 97.765625 85.359375 100.433594 Z M 84.097656 107.546875 C 82.882812 109.023438 81.75 110.554688 80.46875 111.925781 C 77.035156 115.652344 76.164062 115.851562 82.355469 118.023438 C 84.300781 118.703125 84.816406 118.242188 84.96875 116.167969 C 85.117188 114.199219 85.011719 112.167969 85.46875 110.273438 C 85.859375 108.699219 85.515625 107.941406 84.097656 107.546875 Z M 83.402344 103.8125 C 83.402344 105.90625 84.992188 107.792969 86.75 107.761719 C 88.625 107.761719 90.597656 105.847656 90.539062 104.117188 C 90.492188 102.625 88.515625 100.816406 86.878906 100.769531 C 85.246094 100.722656 83.421875 102.335938 83.410156 103.8125 Z M 83.203125 107.289062 C 82.476562 106.539062 81.925781 105.65625 81.660156 105.738281 C 80.886719 105.964844 80.234375 106.582031 79.535156 107.046875 C 80.117188 107.640625 80.617188 108.410156 81.324219 108.730469 C 81.609375 108.859375 82.347656 107.976562 83.210938 107.289062 Z M 83.203125 107.289062 " fill-opacity="1" fill-rule="nonzero"/><path fill="#ffffff" d="M 293.8125 112.824219 L 290.230469 112.371094 L 290.324219 111.703125 C 290.769531 111.804688 291.265625 112.074219 291.648438 111.960938 C 292.253906 111.785156 293.242188 111.382812 293.242188 111.023438 C 293.285156 110.34375 292.765625 109.625 292.480469 108.921875 C 291.816406 109.191406 290.792969 109.285156 290.554688 109.765625 C 289.625 111.640625 288.964844 113.644531 288.167969 115.589844 C 286.839844 118.824219 285.820312 119.105469 283.074219 117.039062 C 282.652344 116.722656 282.277344 116.367188 281.847656 116.035156 C 278.808594 113.589844 278.847656 112.152344 282.042969 110.042969 C 283.308594 109.210938 284.683594 108.527344 285.878906 107.609375 C 286.632812 107.027344 287.144531 106.136719 287.765625 105.382812 L 285.195312 103.75 L 284.675781 104.210938 C 284.859375 105.160156 285.042969 106.113281 285.230469 107.066406 L 284.78125 107.246094 C 284.347656 106.253906 283.910156 105.253906 283.417969 104.148438 C 282.101562 104.019531 280.539062 103.878906 278.972656 103.707031 C 277.28125 103.527344 276.492188 102.394531 277.042969 100.949219 C 277.9375 98.785156 279 96.703125 280.226562 94.703125 C 280.398438 94.40625 281.5 94.265625 281.851562 94.515625 C 282.886719 95.320312 283.867188 96.191406 284.792969 97.125 L 289.070312 101.050781 L 289.867188 100.871094 L 290.265625 97.710938 L 286.707031 98.40625 L 289.867188 96.234375 C 289.566406 94.3125 289.226562 92.324219 288.957031 90.332031 C 288.792969 89.101562 289.457031 88.308594 290.644531 88.433594 C 292.851562 88.609375 295.03125 88.976562 297.175781 89.539062 C 298.394531 89.894531 298.875 91.0625 298.046875 92.425781 C 297.160156 93.875 296.394531 95.402344 295.59375 96.859375 L 299.3125 99.316406 C 300.75 98.46875 302.34375 97.40625 304.050781 96.585938 C 304.542969 96.351562 305.683594 96.585938 305.972656 96.984375 C 306.765625 98.066406 307.308594 99.257812 307.605469 100.566406 C 307.902344 101.871094 307.925781 103.183594 307.671875 104.5 C 307.453125 105.738281 306.652344 106.117188 305.515625 105.996094 C 303.890625 105.820312 302.273438 105.628906 300.921875 105.480469 L 299.199219 109.574219 C 300.191406 110.464844 301.371094 111.613281 302.628906 112.652344 C 303.972656 113.757812 303.785156 114.867188 302.558594 115.722656 C 300.886719 116.847656 299.164062 117.882812 297.386719 118.828125 C 296.019531 119.585938 295.222656 118.847656 294.890625 117.578125 C 294.425781 115.941406 294.121094 114.265625 293.8125 112.824219 Z M 295.953125 104.070312 C 299.5 104.4375 302.296875 104.65625 305.074219 105.042969 C 306.527344 105.246094 307.109375 104.621094 307.023438 103.355469 C 306.957031 102.042969 306.738281 100.753906 306.363281 99.488281 C 305.566406 96.941406 304.933594 96.738281 302.730469 98.179688 C 300.972656 99.328125 299.203125 100.472656 297.554688 101.761719 C 296.886719 102.285156 296.53125 103.207031 295.953125 104.066406 Z M 291.78125 100.523438 C 292.515625 99.972656 293.375 99.632812 293.734375 99.003906 C 294.992188 96.769531 296.089844 94.445312 297.226562 92.140625 C 297.703125 91.175781 297.40625 90.421875 296.359375 90.152344 C 295.03125 89.765625 293.679688 89.5 292.300781 89.355469 C 289.707031 89.167969 289.386719 89.636719 289.957031 92.140625 C 290.53125 94.644531 291.0625 97.277344 291.78125 100.519531 Z M 295.03125 107.289062 C 293.839844 107.6875 293.65625 108.65625 294.140625 110.074219 C 294.519531 111.269531 294.78125 112.484375 294.9375 113.726562 C 295.734375 119.023438 296.445312 119.34375 300.773438 116.265625 C 302.925781 114.730469 302.933594 113.972656 300.84375 112.214844 C 298.933594 110.601562 297.050781 108.984375 295.039062 107.273438 Z M 288.433594 101.84375 L 287.671875 102.433594 C 285.902344 100.296875 284.128906 98.15625 282.359375 96.019531 C 281.335938 94.78125 280.457031 95.039062 279.753906 96.3125 C 279.074219 97.441406 278.484375 98.621094 277.992188 99.84375 C 277.253906 101.910156 277.992188 102.773438 280.191406 102.878906 C 282.679688 103.003906 285.167969 103.195312 287.898438 103.371094 Z M 288.738281 106.898438 C 287.082031 107.976562 285.511719 109.054688 283.898438 110.046875 C 279.625 112.671875 279.628906 113.765625 283.964844 116.511719 C 284.074219 116.582031 284.183594 116.660156 284.296875 116.722656 C 285.546875 117.457031 286.46875 117.402344 287.035156 115.824219 C 287.984375 113.191406 289.046875 110.601562 290.070312 107.972656 Z M 295.480469 104.511719 C 295.488281 104.042969 295.40625 103.59375 295.234375 103.15625 C 295.0625 102.722656 294.8125 102.335938 294.484375 102.003906 C 294.15625 101.667969 293.777344 101.410156 293.34375 101.230469 C 292.914062 101.046875 292.464844 100.957031 291.996094 100.957031 C 291.5625 100.96875 291.148438 101.0625 290.75 101.230469 C 290.351562 101.398438 290 101.636719 289.691406 101.941406 C 289.382812 102.246094 289.140625 102.59375 288.964844 102.992188 C 288.789062 103.386719 288.691406 103.800781 288.671875 104.234375 C 288.671875 106.046875 290.402344 107.691406 292.304688 107.699219 C 293.894531 107.695312 295.4375 106.164062 295.480469 104.523438 Z M 295.4375 97.789062 C 294.246094 99.476562 294.277344 100.648438 295.980469 101.574219 L 298.621094 99.457031 Z M 297.828125 108.738281 L 298.519531 108.738281 C 298.917969 108.023438 299.5625 107.324219 299.625 106.582031 C 299.65625 106.183594 298.683594 105.332031 298.183594 105.347656 C 297.625 105.367188 296.59375 106.1875 296.644531 106.5625 C 296.726562 107.316406 297.394531 108.015625 297.828125 108.738281 Z M 297.828125 108.738281 " fill-opacity="1" fill-rule="nonzero"/><path stroke-linecap="butt" transform="matrix(0.75, 0, 0, 0.75, 7.837854, 142.321678)" fill="none" stroke-linejoin="miter" d="M -0.00255569 1.998179 L 479.632889 1.998179 " stroke="#ffffff" stroke-width="4" stroke-opacity="1" stroke-miterlimit="4"/></svg>