<svg xmlns="http://www.w3.org/2000/svg" xmlns:xlink="http://www.w3.org/1999/xlink" width="500" zoomAndPan="magnify" viewBox="0 0 375 149.999998" height="200" preserveAspectRatio="xMidYMid meet" version="1.0"><defs><clipPath id="7b160d6b50"><path d="M 88.144531 96 L 178 96 L 178 139 L 88.144531 139 Z M 88.144531 96 " clip-rule="nonzero"/></clipPath><clipPath id="d6bc01f3a6"><path d="M 279 128 L 286.894531 128 L 286.894531 136 L 279 136 Z M 279 128 " clip-rule="nonzero"/></clipPath><clipPath id="63f24d7893"><path d="M 88.144531 4.082031 L 178 4.082031 L 178 100 L 88.144531 100 Z M 88.144531 4.082031 " clip-rule="nonzero"/></clipPath><clipPath id="6866d3631b"><path d="M 88.144531 46 L 93 46 L 93 65 L 88.144531 65 Z M 88.144531 46 " clip-rule="nonzero"/></clipPath><clipPath id="052431dd9c"><path d="M 120 117 L 149 117 L 149 145.832031 L 120 145.832031 Z M 120 117 " clip-rule="nonzero"/></clipPath><clipPath id="fb8863cd2a"><path d="M 230 117 L 259 117 L 259 145.832031 L 230 145.832031 Z M 230 117 " clip-rule="nonzero"/></clipPath></defs><path fill="#ffffff" d="M 216.007812 124.585938 C 216.007812 130.441406 211.21875 135.214844 205.382812 135.214844 L 184.128906 135.214844 L 184.128906 138.753906 L 224.335938 138.753906 C 223.546875 136.527344 223.089844 134.148438 223.089844 131.671875 C 223.089844 129.195312 223.546875 126.816406 224.335938 124.585938 L 216.007812 124.585938 " fill-opacity="1" fill-rule="nonzero"/><g clip-path="url(#7b160d6b50)"><path fill="#ffffff" d="M 162.878906 124.585938 L 162.878906 110.417969 C 162.878906 104.566406 167.664062 99.792969 173.503906 99.792969 L 177.046875 99.792969 L 177.046875 96.25 L 125.09375 96.25 L 112.835938 105.453125 C 111.589844 106.378906 110.109375 106.878906 108.574219 106.878906 L 95.582031 106.878906 L 95.582031 106.945312 C 95.582031 108.855469 94.832031 110.667969 93.449219 112.011719 C 92.082031 113.367188 90.15625 114.003906 88.316406 114.03125 L 88.429688 121.046875 L 99.121094 121.046875 L 99.121094 128.128906 L 88.789062 128.128906 C 89.8125 132.554688 93.519531 135.917969 98.277344 136.304688 L 114.136719 137.523438 C 113.609375 135.640625 113.289062 133.691406 113.289062 131.671875 C 113.289062 119.953125 122.824219 110.417969 134.542969 110.417969 C 146.261719 110.417969 155.792969 119.953125 155.792969 131.671875 C 155.792969 134.148438 155.335938 136.527344 154.550781 138.753906 L 177.046875 138.753906 L 177.046875 135.214844 L 173.503906 135.214844 C 167.664062 135.214844 162.878906 130.441406 162.878906 124.585938 " fill-opacity="1" fill-rule="nonzero"/></g><path fill="#ffffff" d="M 272.679688 138.753906 L 272.679688 124.585938 L 264.347656 124.585938 C 265.136719 126.816406 265.59375 129.195312 265.59375 131.671875 C 265.59375 134.148438 265.136719 136.527344 264.347656 138.753906 L 272.679688 138.753906 " fill-opacity="1" fill-rule="nonzero"/><path fill="#ffffff" d="M 134.542969 128.128906 C 132.589844 128.128906 131 129.71875 131 131.671875 C 131 133.621094 132.589844 135.214844 134.542969 135.214844 C 136.492188 135.214844 138.085938 133.621094 138.085938 131.671875 C 138.085938 129.71875 136.492188 128.128906 134.542969 128.128906 " fill-opacity="1" fill-rule="nonzero"/><g clip-path="url(#d6bc01f3a6)"><path fill="#ffffff" d="M 283.304688 128.128906 L 279.761719 128.128906 L 279.761719 135.214844 L 283.304688 135.214844 C 285.253906 135.214844 286.847656 133.621094 286.847656 131.671875 C 286.847656 129.71875 285.253906 128.128906 283.304688 128.128906 " fill-opacity="1" fill-rule="nonzero"/></g><path fill="#ffffff" d="M 201.839844 121.046875 L 194.753906 121.046875 L 194.753906 113.960938 L 201.839844 113.960938 Z M 208.921875 124.585938 L 208.921875 110.417969 C 208.921875 108.46875 207.332031 106.878906 205.382812 106.878906 L 173.503906 106.878906 C 171.554688 106.878906 169.960938 108.46875 169.960938 110.417969 L 169.960938 124.585938 C 169.960938 126.539062 171.554688 128.128906 173.503906 128.128906 L 205.382812 128.128906 C 207.332031 128.128906 208.921875 126.539062 208.921875 124.585938 " fill-opacity="1" fill-rule="nonzero"/><g clip-path="url(#63f24d7893)"><path fill="#ffffff" d="M 113.289062 71.457031 L 123.917969 71.457031 L 123.917969 78.542969 L 113.289062 78.542969 Z M 95.582031 99.792969 L 108.574219 99.792969 L 120.832031 90.59375 C 122.078125 89.664062 123.558594 89.167969 125.09375 89.167969 L 177.046875 89.167969 L 177.046875 7.703125 C 177.046875 5.753906 175.453125 4.160156 173.503906 4.160156 L 156.152344 4.160156 L 103.261719 15.214844 C 99.054688 15.964844 95.332031 18.078125 92.675781 21.277344 C 89.976562 24.457031 88.496094 28.5 88.496094 32.703125 L 95.71875 32.496094 L 138.085938 32.496094 C 141.984375 32.496094 145.167969 35.691406 145.167969 39.582031 L 145.167969 54.453125 C 145.167969 57.828125 142.761719 60.761719 139.46875 61.398438 L 88.496094 71.597656 L 88.496094 92.890625 C 90.226562 92.640625 92.039062 93.347656 93.421875 94.660156 C 94.804688 96.003906 95.582031 97.84375 95.582031 99.792969 " fill-opacity="1" fill-rule="nonzero"/></g><g clip-path="url(#6866d3631b)"><path fill="#ffffff" d="M 88.496094 57.289062 L 88.496094 64.375 L 92.039062 63.667969 L 92.039062 46.773438 C 89.839844 49.707031 88.496094 53.320312 88.496094 57.289062 " fill-opacity="1" fill-rule="nonzero"/></g><path fill="#ffffff" d="M 99.121094 62.257812 L 120.375 57.996094 L 120.375 39.582031 L 106.207031 39.582031 C 103.6875 39.582031 101.28125 40.121094 99.121094 41.0625 L 99.121094 62.257812 " fill-opacity="1" fill-rule="nonzero"/><path fill="#ffffff" d="M 127.457031 39.582031 L 127.457031 56.585938 L 138.085938 54.453125 L 138.085938 39.582031 L 127.457031 39.582031 " fill-opacity="1" fill-rule="nonzero"/><g clip-path="url(#052431dd9c)"><path fill="#ffffff" d="M 134.542969 138.753906 C 130.640625 138.753906 127.457031 135.558594 127.457031 131.671875 C 127.457031 127.785156 130.640625 124.585938 134.542969 124.585938 C 138.445312 124.585938 141.625 127.785156 141.625 131.671875 C 141.625 135.558594 138.445312 138.753906 134.542969 138.753906 Z M 134.542969 117.503906 C 126.710938 117.503906 120.375 123.839844 120.375 131.671875 C 120.375 139.503906 126.710938 145.839844 134.542969 145.839844 C 142.375 145.839844 148.710938 139.503906 148.710938 131.671875 C 148.710938 123.839844 142.375 117.503906 134.542969 117.503906 " fill-opacity="1" fill-rule="nonzero"/></g><path fill="#ffffff" d="M 244.34375 128.128906 C 242.390625 128.128906 240.800781 129.71875 240.800781 131.671875 C 240.800781 133.621094 242.390625 135.214844 244.34375 135.214844 C 246.292969 135.214844 247.882812 133.621094 247.882812 131.671875 C 247.882812 129.71875 246.292969 128.128906 244.34375 128.128906 " fill-opacity="1" fill-rule="nonzero"/><g clip-path="url(#fb8863cd2a)"><path fill="#ffffff" d="M 244.34375 138.753906 C 240.441406 138.753906 237.257812 135.558594 237.257812 131.671875 C 237.257812 127.785156 240.441406 124.585938 244.34375 124.585938 C 248.246094 124.585938 251.425781 127.785156 251.425781 131.671875 C 251.425781 135.558594 248.246094 138.753906 244.34375 138.753906 Z M 244.34375 117.503906 C 236.511719 117.503906 230.175781 123.839844 230.175781 131.671875 C 230.175781 139.503906 236.511719 145.839844 244.34375 145.839844 C 252.171875 145.839844 258.511719 139.503906 258.511719 131.671875 C 258.511719 123.839844 252.171875 117.503906 244.34375 117.503906 " fill-opacity="1" fill-rule="nonzero"/></g><path stroke-linecap="butt" transform="matrix(0.75, -0.000000000000000093, 0.000000000000000093, 0.75, -5.870176, 148.499993)" fill="none" stroke-linejoin="miter" d="M -0.00122402 2.000009 L 507.826931 2.000009 " stroke="#ffffff" stroke-width="4" stroke-opacity="1" stroke-miterlimit="4"/></svg>