<svg xmlns="http://www.w3.org/2000/svg" xmlns:xlink="http://www.w3.org/1999/xlink" width="500" zoomAndPan="magnify" viewBox="0 0 375 157.92" height="200" preserveAspectRatio="xMidYMid meet" version="1.0"><defs><clipPath id="4b5f64150a"><path d="M 121.652344 2.375 L 253.585938 2.375 L 253.585938 141 L 121.652344 141 Z M 121.652344 2.375 " clip-rule="nonzero"/></clipPath><clipPath id="10c09ead92"><path d="M 0.09375 148 L 374.902344 148 L 374.902344 149.925781 L 0.09375 149.925781 Z M 0.09375 148 " clip-rule="nonzero"/></clipPath></defs><g clip-path="url(#4b5f64150a)"><path fill="#ffffff" d="M 132.394531 140.996094 L 244.351562 140.996094 C 244.941406 140.996094 245.527344 140.9375 246.105469 140.824219 C 246.683594 140.707031 247.246094 140.535156 247.789062 140.308594 C 248.335938 140.085938 248.851562 139.808594 249.34375 139.480469 C 249.832031 139.152344 250.285156 138.777344 250.703125 138.363281 C 251.121094 137.945312 251.492188 137.492188 251.820312 137 C 252.148438 136.511719 252.425781 135.992188 252.652344 135.449219 C 252.875 134.902344 253.046875 134.339844 253.164062 133.761719 C 253.277344 133.183594 253.335938 132.601562 253.335938 132.011719 L 253.335938 77.578125 C 253.335938 76.992188 253.285156 76.40625 253.183594 75.828125 C 253.082031 75.25 252.929688 74.683594 252.734375 74.132812 C 252.535156 73.578125 252.292969 73.046875 252.003906 72.535156 C 251.714844 72.023438 251.382812 71.539062 251.011719 71.085938 C 250.640625 70.628906 250.234375 70.210938 249.789062 69.824219 C 249.347656 69.4375 248.875 69.09375 248.371094 68.789062 C 247.871094 68.484375 247.347656 68.222656 246.800781 68.007812 C 246.253906 67.792969 245.691406 67.625 245.117188 67.503906 C 237.859375 66.011719 228.753906 61.972656 226.585938 51.21875 C 226.167969 49.226562 225.222656 47.519531 223.753906 46.105469 C 224.421875 45.511719 224.933594 44.808594 225.300781 43.996094 C 225.664062 43.183594 225.847656 42.332031 225.851562 41.441406 L 225.851562 33.421875 C 225.851562 33.003906 225.808594 32.59375 225.730469 32.1875 C 225.648438 31.78125 225.527344 31.386719 225.367188 31 C 225.210938 30.617188 225.015625 30.253906 224.785156 29.910156 C 224.554688 29.5625 224.292969 29.246094 224 28.953125 C 223.703125 28.65625 223.386719 28.394531 223.039062 28.164062 C 222.695312 27.933594 222.332031 27.738281 221.949219 27.582031 C 221.566406 27.421875 221.167969 27.300781 220.761719 27.21875 C 220.355469 27.136719 219.945312 27.097656 219.53125 27.097656 L 193.714844 27.097656 C 193.300781 27.097656 192.890625 27.136719 192.484375 27.21875 C 192.078125 27.300781 191.679688 27.421875 191.296875 27.578125 C 190.914062 27.738281 190.550781 27.933594 190.203125 28.164062 C 189.859375 28.394531 189.539062 28.65625 189.246094 28.949219 C 188.953125 29.242188 188.691406 29.5625 188.460938 29.90625 C 188.230469 30.253906 188.035156 30.617188 187.875 31 C 187.71875 31.382812 187.597656 31.777344 187.515625 32.183594 C 187.433594 32.59375 187.394531 33.003906 187.394531 33.417969 L 187.394531 41.4375 C 187.398438 42.402344 187.613281 43.320312 188.035156 44.1875 C 188.460938 45.054688 189.058594 45.785156 189.820312 46.378906 C 189.570312 46.667969 189.339844 46.96875 189.125 47.289062 C 187.703125 46.441406 186.382812 45.453125 185.171875 44.328125 C 183.957031 43.199219 182.875 41.957031 181.929688 40.597656 C 180.980469 39.242188 180.183594 37.800781 179.542969 36.273438 C 178.902344 34.746094 178.429688 33.167969 178.125 31.539062 C 177.867188 30.296875 177.417969 29.128906 176.777344 28.03125 C 176.140625 26.9375 175.339844 25.972656 174.386719 25.136719 C 175.273438 24.460938 175.96875 23.621094 176.464844 22.617188 C 176.960938 21.617188 177.210938 20.554688 177.214844 19.4375 L 177.214844 9.601562 C 177.214844 9.128906 177.167969 8.660156 177.074219 8.195312 C 176.980469 7.726562 176.84375 7.277344 176.660156 6.839844 C 176.480469 6.398438 176.257812 5.984375 175.992188 5.589844 C 175.730469 5.195312 175.429688 4.828125 175.09375 4.496094 C 174.757812 4.160156 174.394531 3.859375 174 3.59375 C 173.605469 3.332031 173.1875 3.109375 172.75 2.925781 C 172.3125 2.746094 171.859375 2.609375 171.394531 2.515625 C 170.929688 2.421875 170.457031 2.375 169.984375 2.375 L 138.332031 2.375 C 137.855469 2.375 137.386719 2.421875 136.921875 2.515625 C 136.457031 2.609375 136.003906 2.746094 135.566406 2.925781 C 135.125 3.109375 134.710938 3.332031 134.316406 3.59375 C 133.921875 3.859375 133.554688 4.160156 133.21875 4.496094 C 132.886719 4.828125 132.585938 5.195312 132.320312 5.589844 C 132.058594 5.984375 131.835938 6.398438 131.652344 6.839844 C 131.472656 7.277344 131.335938 7.726562 131.242188 8.195312 C 131.148438 8.660156 131.101562 9.128906 131.101562 9.601562 L 131.101562 19.4375 C 131.101562 20.644531 131.382812 21.777344 131.949219 22.839844 C 132.511719 23.90625 133.296875 24.773438 134.296875 25.445312 C 133.195312 26.570312 132.375 27.875 131.835938 29.355469 L 126.191406 45.117188 C 123.316406 53.140625 121.878906 61.410156 121.882812 69.933594 L 121.882812 130.492188 C 121.882812 131.183594 121.953125 131.863281 122.085938 132.542969 C 122.222656 133.21875 122.421875 133.875 122.6875 134.511719 C 122.949219 135.148438 123.273438 135.753906 123.65625 136.328125 C 124.042969 136.902344 124.476562 137.429688 124.964844 137.917969 C 125.453125 138.40625 125.984375 138.84375 126.558594 139.226562 C 127.128906 139.609375 127.734375 139.933594 128.371094 140.195312 C 129.011719 140.460938 129.667969 140.660156 130.34375 140.792969 C 131.019531 140.929688 131.703125 140.996094 132.394531 140.996094 Z M 209.929688 59.074219 L 212.242188 59.074219 C 216.054688 70.160156 224.902344 78.199219 237.421875 81.960938 L 237.421875 125.078125 L 210.917969 125.078125 L 210.917969 63.753906 C 210.910156 62.128906 210.578125 60.566406 209.929688 59.074219 Z M 192.011719 33.425781 C 192.015625 33.203125 192.058594 32.984375 192.144531 32.777344 C 192.230469 32.566406 192.355469 32.382812 192.511719 32.226562 C 192.671875 32.066406 192.855469 31.941406 193.066406 31.855469 C 193.273438 31.769531 193.492188 31.726562 193.714844 31.726562 L 194.410156 31.726562 L 194.410156 36.3125 C 194.410156 36.621094 194.46875 36.914062 194.585938 37.195312 C 194.703125 37.480469 194.871094 37.730469 195.085938 37.945312 C 195.304688 38.164062 195.550781 38.332031 195.835938 38.449219 C 196.117188 38.566406 196.414062 38.625 196.71875 38.625 C 197.027344 38.625 197.320312 38.566406 197.605469 38.449219 C 197.886719 38.332031 198.136719 38.164062 198.351562 37.945312 C 198.570312 37.730469 198.738281 37.480469 198.855469 37.195312 C 198.972656 36.914062 199.03125 36.621094 199.03125 36.3125 L 199.03125 31.71875 L 203.882812 31.71875 L 203.882812 36.304688 C 203.882812 36.609375 203.941406 36.90625 204.058594 37.1875 C 204.175781 37.472656 204.34375 37.722656 204.558594 37.9375 C 204.773438 38.152344 205.023438 38.320312 205.308594 38.4375 C 205.589844 38.554688 205.886719 38.613281 206.191406 38.613281 C 206.5 38.613281 206.792969 38.554688 207.078125 38.4375 C 207.359375 38.320312 207.609375 38.152344 207.824219 37.9375 C 208.042969 37.722656 208.210938 37.472656 208.328125 37.1875 C 208.445312 36.90625 208.503906 36.609375 208.503906 36.304688 L 208.503906 31.71875 L 213.378906 31.71875 L 213.378906 36.304688 C 213.378906 36.609375 213.4375 36.90625 213.554688 37.1875 C 213.671875 37.472656 213.835938 37.722656 214.054688 37.9375 C 214.269531 38.152344 214.519531 38.320312 214.804688 38.4375 C 215.085938 38.554688 215.382812 38.613281 215.6875 38.613281 C 215.996094 38.613281 216.289062 38.554688 216.570312 38.4375 C 216.855469 38.320312 217.105469 38.152344 217.320312 37.9375 C 217.539062 37.722656 217.703125 37.472656 217.824219 37.1875 C 217.941406 36.90625 218 36.609375 218 36.304688 L 218 31.71875 L 219.515625 31.71875 C 219.742188 31.71875 219.957031 31.761719 220.167969 31.847656 C 220.375 31.933594 220.558594 32.058594 220.71875 32.214844 C 220.878906 32.375 221 32.558594 221.085938 32.769531 C 221.171875 32.976562 221.214844 33.191406 221.214844 33.417969 L 221.214844 41.4375 C 221.214844 41.664062 221.171875 41.878906 221.085938 42.085938 C 221 42.296875 220.878906 42.480469 220.71875 42.640625 C 220.558594 42.796875 220.375 42.921875 220.167969 43.007812 C 219.957031 43.09375 219.742188 43.136719 219.515625 43.136719 L 216.640625 43.136719 C 216.601562 43.136719 216.570312 43.136719 216.535156 43.136719 L 196.875 43.136719 C 196.835938 43.136719 196.796875 43.136719 196.757812 43.136719 L 193.714844 43.136719 C 193.492188 43.136719 193.273438 43.09375 193.066406 43.007812 C 192.855469 42.921875 192.671875 42.800781 192.511719 42.640625 C 192.355469 42.480469 192.230469 42.296875 192.144531 42.089844 C 192.058594 41.878906 192.015625 41.664062 192.011719 41.4375 Z M 196.816406 47.769531 L 216.640625 47.769531 C 217.273438 47.769531 217.886719 47.878906 218.480469 48.089844 C 219.078125 48.304688 219.621094 48.609375 220.113281 49.007812 C 220.605469 49.40625 221.019531 49.871094 221.351562 50.410156 C 221.683594 50.949219 221.917969 51.527344 222.054688 52.144531 C 224.863281 66.066406 237.125 70.585938 244.1875 72.039062 C 244.824219 72.171875 245.421875 72.40625 245.980469 72.742188 C 246.535156 73.082031 247.023438 73.503906 247.433594 74.007812 C 247.847656 74.511719 248.164062 75.070312 248.382812 75.683594 C 248.601562 76.296875 248.714844 76.929688 248.714844 77.582031 L 248.714844 132.011719 C 248.714844 132.296875 248.6875 132.582031 248.632812 132.863281 C 248.578125 133.144531 248.492188 133.414062 248.382812 133.679688 C 248.273438 133.945312 248.140625 134.195312 247.980469 134.433594 C 247.820312 134.671875 247.640625 134.894531 247.4375 135.097656 C 247.234375 135.300781 247.015625 135.480469 246.777344 135.640625 C 246.539062 135.796875 246.285156 135.933594 246.023438 136.042969 C 245.757812 136.152344 245.484375 136.234375 245.203125 136.292969 C 244.921875 136.347656 244.640625 136.375 244.351562 136.375 L 209.109375 136.375 C 210.316406 134.601562 210.921875 132.640625 210.917969 130.492188 L 210.917969 129.699219 L 239.730469 129.699219 C 240.039062 129.699219 240.332031 129.640625 240.617188 129.523438 C 240.898438 129.40625 241.148438 129.238281 241.367188 129.023438 C 241.582031 128.804688 241.75 128.558594 241.867188 128.273438 C 241.984375 127.992188 242.042969 127.695312 242.042969 127.390625 L 242.042969 80.210938 C 242.042969 79.957031 242 79.707031 241.917969 79.464844 C 241.835938 79.226562 241.714844 79.003906 241.558594 78.800781 C 241.402344 78.597656 241.21875 78.425781 241.007812 78.285156 C 240.792969 78.144531 240.5625 78.042969 240.316406 77.976562 C 227.878906 74.714844 219.292969 66.953125 216.144531 56.117188 C 216 55.625 215.722656 55.222656 215.3125 54.914062 C 214.902344 54.605469 214.4375 54.453125 213.925781 54.453125 L 206.511719 54.453125 C 204.976562 53.164062 203.226562 52.316406 201.265625 51.910156 C 198.523438 51.359375 195.863281 50.535156 193.285156 49.445312 C 193.726562 48.925781 194.253906 48.519531 194.871094 48.222656 C 195.488281 47.929688 196.136719 47.777344 196.816406 47.761719 Z M 135.722656 9.601562 C 135.722656 9.257812 135.789062 8.925781 135.921875 8.605469 C 136.054688 8.285156 136.242188 8.003906 136.488281 7.761719 C 136.730469 7.515625 137.015625 7.328125 137.332031 7.195312 C 137.652344 7.0625 137.984375 6.996094 138.332031 6.996094 L 139.714844 6.996094 L 139.714844 13.140625 C 139.714844 13.449219 139.773438 13.742188 139.890625 14.027344 C 140.007812 14.308594 140.175781 14.558594 140.394531 14.777344 C 140.609375 14.992188 140.859375 15.160156 141.144531 15.277344 C 141.425781 15.394531 141.71875 15.453125 142.027344 15.453125 C 142.332031 15.453125 142.628906 15.394531 142.910156 15.277344 C 143.195312 15.160156 143.445312 14.992188 143.660156 14.777344 C 143.878906 14.558594 144.042969 14.308594 144.160156 14.027344 C 144.277344 13.742188 144.335938 13.449219 144.335938 13.140625 L 144.335938 6.996094 L 151.335938 6.996094 L 151.335938 13.140625 C 151.335938 13.449219 151.394531 13.742188 151.511719 14.027344 C 151.628906 14.308594 151.796875 14.558594 152.015625 14.777344 C 152.230469 14.992188 152.480469 15.160156 152.765625 15.277344 C 153.046875 15.394531 153.339844 15.453125 153.648438 15.453125 C 153.953125 15.453125 154.25 15.394531 154.53125 15.277344 C 154.816406 15.160156 155.066406 14.992188 155.28125 14.777344 C 155.5 14.558594 155.664062 14.308594 155.78125 14.027344 C 155.898438 13.742188 155.957031 13.449219 155.957031 13.140625 L 155.957031 6.996094 L 162.980469 6.996094 L 162.980469 13.140625 C 162.980469 13.449219 163.039062 13.742188 163.15625 14.027344 C 163.273438 14.308594 163.441406 14.558594 163.660156 14.777344 C 163.875 14.992188 164.125 15.160156 164.40625 15.277344 C 164.691406 15.394531 164.984375 15.453125 165.292969 15.453125 C 165.597656 15.453125 165.894531 15.394531 166.175781 15.277344 C 166.460938 15.160156 166.710938 14.992188 166.925781 14.777344 C 167.140625 14.558594 167.308594 14.308594 167.425781 14.027344 C 167.542969 13.742188 167.601562 13.449219 167.601562 13.140625 L 167.601562 6.996094 L 169.984375 6.996094 C 170.328125 6.996094 170.664062 7.0625 170.980469 7.195312 C 171.300781 7.328125 171.582031 7.515625 171.828125 7.761719 C 172.070312 8.003906 172.261719 8.285156 172.394531 8.605469 C 172.527344 8.925781 172.59375 9.257812 172.59375 9.601562 L 172.59375 19.4375 C 172.59375 19.785156 172.527344 20.117188 172.394531 20.4375 C 172.261719 20.753906 172.070312 21.035156 171.828125 21.28125 C 171.582031 21.527344 171.300781 21.714844 170.980469 21.847656 C 170.664062 21.980469 170.332031 22.046875 169.984375 22.046875 L 138.332031 22.046875 C 137.984375 22.046875 137.652344 21.980469 137.332031 21.847656 C 137.011719 21.714844 136.730469 21.527344 136.488281 21.28125 C 136.242188 21.035156 136.054688 20.753906 135.921875 20.4375 C 135.789062 20.117188 135.722656 19.785156 135.722656 19.4375 Z M 126.503906 69.933594 C 126.5 61.945312 127.847656 54.1875 130.542969 46.667969 L 136.1875 30.898438 C 136.410156 30.28125 136.722656 29.710938 137.121094 29.1875 C 137.519531 28.664062 137.988281 28.214844 138.523438 27.835938 C 139.0625 27.457031 139.644531 27.167969 140.269531 26.96875 C 140.894531 26.769531 141.539062 26.667969 142.195312 26.667969 L 166.300781 26.667969 C 167.148438 26.65625 167.972656 26.789062 168.773438 27.0625 C 169.574219 27.335938 170.304688 27.734375 170.96875 28.261719 C 171.632812 28.785156 172.1875 29.410156 172.636719 30.125 C 173.085938 30.84375 173.402344 31.617188 173.582031 32.441406 C 174.007812 34.617188 174.675781 36.710938 175.589844 38.726562 C 176.503906 40.746094 177.640625 42.628906 178.996094 44.378906 C 180.355469 46.125 181.894531 47.695312 183.621094 49.082031 C 185.347656 50.46875 187.210938 51.636719 189.210938 52.585938 C 189.246094 52.601562 189.269531 52.632812 189.304688 52.644531 L 189.339844 52.644531 C 192.839844 54.394531 196.507812 55.660156 200.34375 56.4375 C 200.761719 56.527344 201.167969 56.648438 201.5625 56.804688 C 201.960938 56.960938 202.339844 57.152344 202.703125 57.375 C 203.070312 57.597656 203.414062 57.847656 203.734375 58.128906 C 204.054688 58.410156 204.351562 58.714844 204.621094 59.046875 C 204.886719 59.375 205.128906 59.726562 205.335938 60.101562 C 205.546875 60.472656 205.722656 60.859375 205.863281 61.261719 C 206.007812 61.664062 206.117188 62.074219 206.1875 62.496094 C 206.261719 62.914062 206.296875 63.339844 206.296875 63.765625 L 206.296875 130.492188 C 206.296875 130.878906 206.257812 131.261719 206.183594 131.640625 C 206.109375 132.019531 205.996094 132.386719 205.847656 132.742188 C 205.699219 133.101562 205.519531 133.4375 205.304688 133.761719 C 205.089844 134.082031 204.84375 134.378906 204.570312 134.652344 C 204.296875 134.925781 204 135.167969 203.679688 135.382812 C 203.359375 135.597656 203.019531 135.777344 202.664062 135.925781 C 202.304688 136.074219 201.9375 136.1875 201.558594 136.261719 C 201.179688 136.339844 200.796875 136.375 200.410156 136.375 L 132.394531 136.375 C 132.007812 136.375 131.625 136.339844 131.246094 136.261719 C 130.867188 136.1875 130.5 136.074219 130.140625 135.925781 C 129.785156 135.777344 129.445312 135.597656 129.125 135.382812 C 128.804688 135.167969 128.507812 134.925781 128.234375 134.652344 C 127.960938 134.378906 127.714844 134.082031 127.503906 133.761719 C 127.289062 133.4375 127.105469 133.101562 126.957031 132.742188 C 126.808594 132.386719 126.699219 132.019531 126.621094 131.640625 C 126.546875 131.261719 126.507812 130.878906 126.507812 130.492188 Z M 126.503906 69.933594 " fill-opacity="1" fill-rule="nonzero"/></g><path fill="#ffffff" d="M 138.054688 127.136719 L 194.746094 127.136719 C 195.054688 127.136719 195.347656 127.078125 195.632812 126.960938 C 195.914062 126.84375 196.164062 126.675781 196.378906 126.457031 C 196.597656 126.242188 196.765625 125.992188 196.882812 125.710938 C 197 125.425781 197.058594 125.132812 197.058594 124.824219 L 197.058594 66.980469 C 197.054688 66.726562 197.015625 66.480469 196.929688 66.238281 C 196.847656 65.996094 196.730469 65.777344 196.574219 65.574219 C 196.417969 65.375 196.234375 65.203125 196.019531 65.0625 C 195.808594 64.921875 195.578125 64.820312 195.332031 64.753906 C 179.910156 60.707031 169.257812 51.054688 165.332031 37.582031 C 165.1875 37.089844 164.910156 36.6875 164.5 36.378906 C 164.089844 36.070312 163.625 35.917969 163.113281 35.917969 L 145.835938 35.917969 C 145.347656 35.917969 144.90625 36.058594 144.507812 36.339844 C 144.109375 36.621094 143.828125 36.992188 143.664062 37.449219 L 139.242188 49.796875 C 136.90625 56.304688 135.742188 63.015625 135.746094 69.929688 L 135.746094 124.824219 C 135.746094 125.132812 135.804688 125.425781 135.921875 125.710938 C 136.039062 125.992188 136.203125 126.242188 136.421875 126.457031 C 136.636719 126.675781 136.886719 126.84375 137.171875 126.960938 C 137.453125 127.078125 137.75 127.136719 138.054688 127.136719 Z M 140.367188 69.929688 C 140.367188 63.546875 141.445312 57.351562 143.601562 51.34375 L 147.472656 40.53125 L 161.425781 40.53125 C 166.015625 54.25 176.9375 64.179688 192.445312 68.738281 L 192.445312 122.515625 L 140.367188 122.515625 Z M 140.367188 69.929688 " fill-opacity="1" fill-rule="nonzero"/><g clip-path="url(#10c09ead92)"><path stroke-linecap="butt" transform="matrix(0.74962, 0, 0, 0.74962, 0.0949367, 148.424806)" fill="none" stroke-linejoin="miter" d="M -0.00158308 2.002314 L 512.476671 2.002314 " stroke="#ffffff" stroke-width="4" stroke-opacity="1" stroke-miterlimit="4"/></g></svg>